M48
;Layer_Color=9474304
;FILE_FORMAT=4:4
METRIC,LZ
;TYPE=PLATED
T01F00S00C0.3000
T02F00S00C0.7112
T03F00S00C1.0200
;TYPE=NON_PLATED
T04F00S00C0.6604
%
T01
X0001952Y00025
X0004452
X0006952
X0009452
X0011952
X0014452
X0016952
X0019452
X0021952
X0020702Y0005
X0023202
X0019452Y00075
X0020702Y001
X0021952Y00125
X0020702Y0015
X0015702
X0014452Y00125
X0012954Y0006985
X0013202Y0005
X0015702
X0005702
X0003202
X0001952Y00075
X0003202Y001
X0001952Y00125
X0004452
T02
X0009652Y0011303
X00151422Y0011275
X0019304Y0017145
X0008001Y0017272
X0001397Y0019558
T03
X0006731Y0004064
X0010668
X00146897
X0018669
X0017653Y0020701
X0022987
X0008382
T04
X0005448Y0009577
Y0016577
X0023241Y0016525
Y0009525
M30
