G04*
G04 #@! TF.GenerationSoftware,Altium Limited,Altium Designer,25.1.2 (22)*
G04*
G04 Layer_Color=8421504*
%FSLAX44Y44*%
%MOMM*%
G71*
G04*
G04 #@! TF.SameCoordinates,773FAE4D-09D9-4A7F-93AA-D97C714D9E26*
G04*
G04*
G04 #@! TF.FilePolarity,Positive*
G04*
G01*
G75*
%ADD15R,1.0414X0.2794*%
%ADD16R,0.5000X0.3000*%
%ADD17R,1.4700X1.0400*%
%ADD18R,1.4200X1.0000*%
D15*
X8810Y108310D02*
D03*
X62310D02*
D03*
X8810Y113310D02*
D03*
X62310D02*
D03*
X8810Y118310D02*
D03*
X62310D02*
D03*
X8810Y123310D02*
D03*
X62310D02*
D03*
X8810Y128310D02*
D03*
X62310D02*
D03*
X8810Y133310D02*
D03*
X62310D02*
D03*
X8810Y138310D02*
D03*
X62310D02*
D03*
X8810Y143310D02*
D03*
X62310D02*
D03*
X8810Y148310D02*
D03*
X62310D02*
D03*
X8810Y153310D02*
D03*
X62310D02*
D03*
X240160Y152750D02*
D03*
X186660D02*
D03*
X240160Y147750D02*
D03*
X186660D02*
D03*
X240160Y142750D02*
D03*
X186660D02*
D03*
X240160Y137750D02*
D03*
X186660D02*
D03*
X240160Y132750D02*
D03*
X186660D02*
D03*
X240160Y127750D02*
D03*
X186660D02*
D03*
X240160Y122750D02*
D03*
X186660D02*
D03*
X240160Y117750D02*
D03*
X186660D02*
D03*
X240160Y112750D02*
D03*
X186660D02*
D03*
X240160Y107750D02*
D03*
X186660D02*
D03*
D16*
X133230Y137240D02*
D03*
Y142240D02*
D03*
Y147240D02*
D03*
X118230D02*
D03*
Y142240D02*
D03*
Y137240D02*
D03*
D17*
X104140Y172470D02*
D03*
Y153670D02*
D03*
D18*
X112990Y90980D02*
D03*
Y109680D02*
D03*
X133350Y90980D02*
D03*
Y109680D02*
D03*
M02*
