G04*
G04 #@! TF.GenerationSoftware,Altium Limited,Altium Designer,25.1.2 (22)*
G04*
G04 Layer_Color=8388736*
%FSLAX44Y44*%
%MOMM*%
G71*
G04*
G04 #@! TF.SameCoordinates,773FAE4D-09D9-4A7F-93AA-D97C714D9E26*
G04*
G04*
G04 #@! TF.FilePolarity,Negative*
G04*
G01*
G75*
%ADD15R,1.0414X0.2794*%
%ADD19R,0.6016X0.4016*%
%ADD20R,1.5716X1.1416*%
%ADD21R,1.5216X1.1016*%
%ADD22C,1.6316*%
%ADD23C,0.6604*%
%ADD24C,1.3716*%
D15*
X8810Y108310D02*
D03*
X62310D02*
D03*
X8810Y113310D02*
D03*
X62310D02*
D03*
X8810Y118310D02*
D03*
X62310D02*
D03*
X8810Y123310D02*
D03*
X62310D02*
D03*
X8810Y128310D02*
D03*
X62310D02*
D03*
X8810Y133310D02*
D03*
X62310D02*
D03*
X8810Y138310D02*
D03*
X62310D02*
D03*
X8810Y143310D02*
D03*
X62310D02*
D03*
X8810Y148310D02*
D03*
X62310D02*
D03*
X8810Y153310D02*
D03*
X62310D02*
D03*
X240160Y152750D02*
D03*
X186660D02*
D03*
X240160Y147750D02*
D03*
X186660D02*
D03*
X240160Y142750D02*
D03*
X186660D02*
D03*
X240160Y137750D02*
D03*
X186660D02*
D03*
X240160Y132750D02*
D03*
X186660D02*
D03*
X240160Y127750D02*
D03*
X186660D02*
D03*
X240160Y122750D02*
D03*
X186660D02*
D03*
X240160Y117750D02*
D03*
X186660D02*
D03*
X240160Y112750D02*
D03*
X186660D02*
D03*
X240160Y107750D02*
D03*
X186660D02*
D03*
D19*
X133230Y137240D02*
D03*
Y142240D02*
D03*
Y147240D02*
D03*
X118230D02*
D03*
Y142240D02*
D03*
Y137240D02*
D03*
D20*
X104140Y172470D02*
D03*
Y153670D02*
D03*
D21*
X112990Y90980D02*
D03*
Y109680D02*
D03*
X133350Y90980D02*
D03*
Y109680D02*
D03*
D22*
X68580Y41910D02*
D03*
X99060Y63500D02*
D03*
X160020Y45720D02*
D03*
X234950Y208280D02*
D03*
X77470Y259080D02*
D03*
X129540Y63500D02*
D03*
X77470Y223520D02*
D03*
D23*
X54560Y95810D02*
D03*
Y165810D02*
D03*
X232410Y165250D02*
D03*
Y95250D02*
D03*
D24*
X97790Y210820D02*
D03*
X164063Y228854D02*
D03*
X76200Y198120D02*
D03*
Y124460D02*
D03*
X162560Y123190D02*
D03*
M02*
