G04*
G04 #@! TF.GenerationSoftware,Altium Limited,Altium Designer,26.5.0 (11)*
G04*
G04 Layer_Color=16711935*
G04 Board_Origin=1200000|0*
%FSLAX44Y44*%
%MOMM*%
G71*
G04*
G04 #@! TF.SameCoordinates,4694B4A4-1AAE-40D1-B312-15FC3A239799*
G04*
G04*
G04 #@! TF.FilePolarity,Negative*
G04*
G01*
G75*
%ADD23C,1.6316*%
%ADD24C,0.6604*%
%ADD25C,0.7016*%
%ADD26C,1.3716*%
D23*
X146897Y40640D02*
D03*
X83820Y207010D02*
D03*
X176530D02*
D03*
X229870D02*
D03*
X67310Y40640D02*
D03*
X106680D02*
D03*
X186690D02*
D03*
D24*
X54480Y165770D02*
D03*
Y95770D02*
D03*
X232410Y165250D02*
D03*
Y95250D02*
D03*
D25*
X114730Y162990D02*
D03*
Y184990D02*
D03*
X136730D02*
D03*
Y162990D02*
D03*
X125730Y173990D02*
D03*
X126160Y220550D02*
D03*
X115160Y231550D02*
D03*
Y209550D02*
D03*
X137160Y231550D02*
D03*
Y209550D02*
D03*
X19520Y25000D02*
D03*
X32020Y50000D02*
D03*
X19520Y75000D02*
D03*
X32020Y100000D02*
D03*
X19520Y125000D02*
D03*
X44520Y25000D02*
D03*
X57020Y50000D02*
D03*
X44520Y125000D02*
D03*
X69520Y25000D02*
D03*
X94520D02*
D03*
X119520D02*
D03*
X132020Y50000D02*
D03*
X144520Y25000D02*
D03*
X157020Y50000D02*
D03*
X144520Y125000D02*
D03*
X157020Y150000D02*
D03*
X169520Y25000D02*
D03*
X194520D02*
D03*
X207020Y50000D02*
D03*
X194520Y75000D02*
D03*
X207020Y100000D02*
D03*
Y150000D02*
D03*
X219520Y25000D02*
D03*
X232020Y50000D02*
D03*
X219520Y125000D02*
D03*
X129540Y69850D02*
D03*
D26*
X80010Y172720D02*
D03*
X96520Y113030D02*
D03*
X151422Y112750D02*
D03*
X193040Y171450D02*
D03*
X13970Y195580D02*
D03*
M02*
