G04*
G04 #@! TF.GenerationSoftware,Altium Limited,Altium Designer,26.5.0 (11)*
G04*
G04 Layer_Color=2752767*
G04 Board_Origin=1200000|0*
%FSLAX44Y44*%
%MOMM*%
G71*
G04*
G04 #@! TF.SameCoordinates,4694B4A4-1AAE-40D1-B312-15FC3A239799*
G04*
G04*
G04 #@! TF.FilePolarity,Positive*
G04*
G01*
G75*
%ADD33C,0.0508*%
%ADD34C,0.0677*%
D33*
X146897Y38608D02*
X144865Y42672D01*
X148929D01*
X146897Y38608D01*
X52448Y163738D02*
Y167802D01*
X56512D01*
Y163738D01*
X52448D01*
Y93738D02*
Y97802D01*
X56512D01*
Y93738D01*
X52448D01*
X83820Y204978D02*
X81788Y209042D01*
X85852D01*
X83820Y204978D01*
X176530D02*
X174498Y209042D01*
X178562D01*
X176530Y204978D01*
X229870D02*
X227838Y209042D01*
X231902D01*
X229870Y204978D01*
X230378Y163218D02*
Y167282D01*
X234442D01*
Y163218D01*
X230378D01*
Y93218D02*
Y97282D01*
X234442D01*
Y93218D01*
X230378D01*
X67310Y38608D02*
X65278Y42672D01*
X69342D01*
X67310Y38608D01*
X106680D02*
X104648Y42672D01*
X108712D01*
X106680Y38608D01*
X186690D02*
X184658Y42672D01*
X188722D01*
X186690Y38608D01*
X19520Y22968D02*
X20536Y23984D01*
X21552D01*
X20536Y25000D01*
X21552Y26016D01*
X20536D01*
X19520Y27032D01*
X18504Y26016D01*
X17488D01*
X18504Y25000D01*
X17488Y23984D01*
X18504D01*
X19520Y22968D01*
X32020Y47968D02*
X33036Y48984D01*
X34052D01*
X33036Y50000D01*
X34052Y51016D01*
X33036D01*
X32020Y52032D01*
X31004Y51016D01*
X29988D01*
X31004Y50000D01*
X29988Y48984D01*
X31004D01*
X32020Y47968D01*
X19520Y72968D02*
X20536Y73984D01*
X21552D01*
X20536Y75000D01*
X21552Y76016D01*
X20536D01*
X19520Y77032D01*
X18504Y76016D01*
X17488D01*
X18504Y75000D01*
X17488Y73984D01*
X18504D01*
X19520Y72968D01*
X32020Y97968D02*
X33036Y98984D01*
X34052D01*
X33036Y100000D01*
X34052Y101016D01*
X33036D01*
X32020Y102032D01*
X31004Y101016D01*
X29988D01*
X31004Y100000D01*
X29988Y98984D01*
X31004D01*
X32020Y97968D01*
X19520Y122968D02*
X20536Y123984D01*
X21552D01*
X20536Y125000D01*
X21552Y126016D01*
X20536D01*
X19520Y127032D01*
X18504Y126016D01*
X17488D01*
X18504Y125000D01*
X17488Y123984D01*
X18504D01*
X19520Y122968D01*
X44520Y22968D02*
X45536Y23984D01*
X46552D01*
X45536Y25000D01*
X46552Y26016D01*
X45536D01*
X44520Y27032D01*
X43504Y26016D01*
X42488D01*
X43504Y25000D01*
X42488Y23984D01*
X43504D01*
X44520Y22968D01*
X57020Y47968D02*
X58036Y48984D01*
X59052D01*
X58036Y50000D01*
X59052Y51016D01*
X58036D01*
X57020Y52032D01*
X56004Y51016D01*
X54988D01*
X56004Y50000D01*
X54988Y48984D01*
X56004D01*
X57020Y47968D01*
X44520Y122968D02*
X45536Y123984D01*
X46552D01*
X45536Y125000D01*
X46552Y126016D01*
X45536D01*
X44520Y127032D01*
X43504Y126016D01*
X42488D01*
X43504Y125000D01*
X42488Y123984D01*
X43504D01*
X44520Y122968D01*
X69520Y22968D02*
X70536Y23984D01*
X71552D01*
X70536Y25000D01*
X71552Y26016D01*
X70536D01*
X69520Y27032D01*
X68504Y26016D01*
X67488D01*
X68504Y25000D01*
X67488Y23984D01*
X68504D01*
X69520Y22968D01*
X94520D02*
X95536Y23984D01*
X96552D01*
X95536Y25000D01*
X96552Y26016D01*
X95536D01*
X94520Y27032D01*
X93504Y26016D01*
X92488D01*
X93504Y25000D01*
X92488Y23984D01*
X93504D01*
X94520Y22968D01*
X119520D02*
X120536Y23984D01*
X121552D01*
X120536Y25000D01*
X121552Y26016D01*
X120536D01*
X119520Y27032D01*
X118504Y26016D01*
X117488D01*
X118504Y25000D01*
X117488Y23984D01*
X118504D01*
X119520Y22968D01*
X132020Y47968D02*
X133036Y48984D01*
X134052D01*
X133036Y50000D01*
X134052Y51016D01*
X133036D01*
X132020Y52032D01*
X131004Y51016D01*
X129988D01*
X131004Y50000D01*
X129988Y48984D01*
X131004D01*
X132020Y47968D01*
X144520Y22968D02*
X145536Y23984D01*
X146552D01*
X145536Y25000D01*
X146552Y26016D01*
X145536D01*
X144520Y27032D01*
X143504Y26016D01*
X142488D01*
X143504Y25000D01*
X142488Y23984D01*
X143504D01*
X144520Y22968D01*
X157020Y47968D02*
X158036Y48984D01*
X159052D01*
X158036Y50000D01*
X159052Y51016D01*
X158036D01*
X157020Y52032D01*
X156004Y51016D01*
X154988D01*
X156004Y50000D01*
X154988Y48984D01*
X156004D01*
X157020Y47968D01*
X144520Y122968D02*
X145536Y123984D01*
X146552D01*
X145536Y125000D01*
X146552Y126016D01*
X145536D01*
X144520Y127032D01*
X143504Y126016D01*
X142488D01*
X143504Y125000D01*
X142488Y123984D01*
X143504D01*
X144520Y122968D01*
X157020Y147968D02*
X158036Y148984D01*
X159052D01*
X158036Y150000D01*
X159052Y151016D01*
X158036D01*
X157020Y152032D01*
X156004Y151016D01*
X154988D01*
X156004Y150000D01*
X154988Y148984D01*
X156004D01*
X157020Y147968D01*
X169520Y22968D02*
X170536Y23984D01*
X171552D01*
X170536Y25000D01*
X171552Y26016D01*
X170536D01*
X169520Y27032D01*
X168504Y26016D01*
X167488D01*
X168504Y25000D01*
X167488Y23984D01*
X168504D01*
X169520Y22968D01*
X194520D02*
X195536Y23984D01*
X196552D01*
X195536Y25000D01*
X196552Y26016D01*
X195536D01*
X194520Y27032D01*
X193504Y26016D01*
X192488D01*
X193504Y25000D01*
X192488Y23984D01*
X193504D01*
X194520Y22968D01*
X207020Y47968D02*
X208036Y48984D01*
X209052D01*
X208036Y50000D01*
X209052Y51016D01*
X208036D01*
X207020Y52032D01*
X206004Y51016D01*
X204988D01*
X206004Y50000D01*
X204988Y48984D01*
X206004D01*
X207020Y47968D01*
X194520Y72968D02*
X195536Y73984D01*
X196552D01*
X195536Y75000D01*
X196552Y76016D01*
X195536D01*
X194520Y77032D01*
X193504Y76016D01*
X192488D01*
X193504Y75000D01*
X192488Y73984D01*
X193504D01*
X194520Y72968D01*
X207020Y97968D02*
X208036Y98984D01*
X209052D01*
X208036Y100000D01*
X209052Y101016D01*
X208036D01*
X207020Y102032D01*
X206004Y101016D01*
X204988D01*
X206004Y100000D01*
X204988Y98984D01*
X206004D01*
X207020Y97968D01*
Y147968D02*
X208036Y148984D01*
X209052D01*
X208036Y150000D01*
X209052Y151016D01*
X208036D01*
X207020Y152032D01*
X206004Y151016D01*
X204988D01*
X206004Y150000D01*
X204988Y148984D01*
X206004D01*
X207020Y147968D01*
X219520Y22968D02*
X220536Y23984D01*
X221552D01*
X220536Y25000D01*
X221552Y26016D01*
X220536D01*
X219520Y27032D01*
X218504Y26016D01*
X217488D01*
X218504Y25000D01*
X217488Y23984D01*
X218504D01*
X219520Y22968D01*
X232020Y47968D02*
X233036Y48984D01*
X234052D01*
X233036Y50000D01*
X234052Y51016D01*
X233036D01*
X232020Y52032D01*
X231004Y51016D01*
X229988D01*
X231004Y50000D01*
X229988Y48984D01*
X231004D01*
X232020Y47968D01*
X219520Y122968D02*
X220536Y123984D01*
X221552D01*
X220536Y125000D01*
X221552Y126016D01*
X220536D01*
X219520Y127032D01*
X218504Y126016D01*
X217488D01*
X218504Y125000D01*
X217488Y123984D01*
X218504D01*
X219520Y122968D01*
X129540Y67818D02*
X130556Y68834D01*
X131572D01*
X130556Y69850D01*
X131572Y70866D01*
X130556D01*
X129540Y71882D01*
X128524Y70866D01*
X127508D01*
X128524Y69850D01*
X127508Y68834D01*
X128524D01*
X129540Y67818D01*
D34*
X82042Y172720D02*
G03*
X82042Y172720I-2032J0D01*
G01*
X98552Y113030D02*
G03*
X98552Y113030I-2032J0D01*
G01*
X153454Y112750D02*
G03*
X153454Y112750I-2032J0D01*
G01*
X195072Y171450D02*
G03*
X195072Y171450I-2032J0D01*
G01*
X16002Y195580D02*
G03*
X16002Y195580I-2032J0D01*
G01*
M02*
