G04*
G04 #@! TF.GenerationSoftware,Altium Limited,Altium Designer,25.1.2 (22)*
G04*
G04 Layer_Color=65535*
%FSLAX44Y44*%
%MOMM*%
G71*
G04*
G04 #@! TF.SameCoordinates,00E531A8-DBC4-4BD0-9775-E622AF79C632*
G04*
G04*
G04 #@! TF.FilePolarity,Positive*
G04*
G01*
G75*
%ADD10C,0.1270*%
%ADD11C,0.5080*%
%ADD12C,0.1524*%
%ADD13C,0.2000*%
%ADD14C,0.0762*%
D10*
X81280Y41910D02*
G03*
X81280Y41910I-12700J0D01*
G01*
X111760Y63500D02*
G03*
X111760Y63500I-12700J0D01*
G01*
X172720Y45720D02*
G03*
X172720Y45720I-12700J0D01*
G01*
X247650Y208280D02*
G03*
X247650Y208280I-12700J0D01*
G01*
X90170Y259080D02*
G03*
X90170Y259080I-12700J0D01*
G01*
X142240Y63500D02*
G03*
X142240Y63500I-12700J0D01*
G01*
X90170Y223520D02*
G03*
X90170Y223520I-12700J0D01*
G01*
X111340Y160530D02*
Y165610D01*
X96940Y160530D02*
Y165610D01*
X105990Y99130D02*
Y101530D01*
X119990Y99130D02*
Y101530D01*
X126350Y99130D02*
Y101530D01*
X140350Y99130D02*
Y101530D01*
D11*
X12620Y72136D02*
G03*
X12620Y72136I-3810J0D01*
G01*
X190470Y71576D02*
G03*
X190470Y71576I-3810J0D01*
G01*
D12*
X66294Y78486D02*
Y103586D01*
X49919Y183134D02*
X66294D01*
X4826Y158034D02*
Y183134D01*
Y78486D02*
X21201D01*
X4826D02*
Y103586D01*
X66294Y158034D02*
Y183134D01*
X49919Y78486D02*
X66294D01*
X4826Y183134D02*
X21201D01*
X182676Y182574D02*
X199051D01*
X227769Y77926D02*
X244144D01*
Y157474D02*
Y182574D01*
X182676Y77926D02*
Y103026D01*
Y77926D02*
X199051D01*
X182676Y157474D02*
Y182574D01*
X227769D02*
X244144D01*
Y77926D02*
Y103026D01*
D13*
X132730Y151740D02*
X134730D01*
X116730D02*
X118730D01*
X116730Y132740D02*
X118730D01*
X127480D02*
X134730D01*
X61978Y22986D02*
X60645Y24319D01*
X57980D01*
X56647Y22986D01*
Y17654D01*
X57980Y16321D01*
X60645D01*
X61978Y17654D01*
Y20320D01*
X59313D01*
X64644Y16321D02*
Y24319D01*
X69976Y16321D01*
Y24319D01*
X72642D02*
Y16321D01*
X76640D01*
X77973Y17654D01*
Y22986D01*
X76640Y24319D01*
X72642D01*
X154877Y202119D02*
X152211D01*
X153544D01*
Y195454D01*
X152211Y194121D01*
X150878D01*
X149545Y195454D01*
X157543Y200786D02*
X158876Y202119D01*
X161542D01*
X162875Y200786D01*
Y199453D01*
X161542Y198120D01*
X160209D01*
X161542D01*
X162875Y196787D01*
Y195454D01*
X161542Y194121D01*
X158876D01*
X157543Y195454D01*
X89667Y40766D02*
X91000Y42099D01*
X93666D01*
X94998Y40766D01*
Y39433D01*
X93666Y38100D01*
X92333D01*
X93666D01*
X94998Y36767D01*
Y35434D01*
X93666Y34101D01*
X91000D01*
X89667Y35434D01*
X97664Y42099D02*
Y36767D01*
X100330Y34101D01*
X102996Y36767D01*
Y42099D01*
X105662Y40766D02*
X106994Y42099D01*
X109660D01*
X110993Y40766D01*
Y39433D01*
X109660Y38100D01*
X108327D01*
X109660D01*
X110993Y36767D01*
Y35434D01*
X109660Y34101D01*
X106994D01*
X105662Y35434D01*
X104140Y193166D02*
X102807Y194499D01*
X100141D01*
X98808Y193166D01*
Y187834D01*
X100141Y186501D01*
X102807D01*
X104140Y187834D01*
X106806Y186501D02*
X109472D01*
X108139D01*
Y194499D01*
X106806Y193166D01*
X219207Y235139D02*
Y229807D01*
X221873Y227141D01*
X224538Y229807D01*
Y235139D01*
X227204D02*
Y227141D01*
X231203D01*
X232536Y228474D01*
Y229807D01*
X231203Y231140D01*
X227204D01*
X231203D01*
X232536Y232473D01*
Y233806D01*
X231203Y235139D01*
X227204D01*
X235202Y227141D02*
Y235139D01*
X239200D01*
X240533Y233806D01*
Y231140D01*
X239200Y229807D01*
X235202D01*
X237867D02*
X240533Y227141D01*
X18358Y228789D02*
Y223457D01*
X21024Y220791D01*
X23690Y223457D01*
Y228789D01*
X26356Y220791D02*
Y226123D01*
X29021Y228789D01*
X31687Y226123D01*
Y220791D01*
Y224790D01*
X26356D01*
X34353Y220791D02*
Y228789D01*
X39685Y220791D01*
Y228789D01*
X47682Y220791D02*
X42350D01*
X47682Y226123D01*
Y227456D01*
X46349Y228789D01*
X43683D01*
X42350Y227456D01*
X20961Y264349D02*
Y259017D01*
X23627Y256351D01*
X26293Y259017D01*
Y264349D01*
X28958Y256351D02*
Y261683D01*
X31624Y264349D01*
X34290Y261683D01*
Y256351D01*
Y260350D01*
X28958D01*
X36956Y256351D02*
Y264349D01*
X42287Y256351D01*
Y264349D01*
X44953Y256351D02*
X47619D01*
X46286D01*
Y264349D01*
X44953Y263016D01*
X124208Y40766D02*
X122875Y42099D01*
X120210D01*
X118877Y40766D01*
Y39433D01*
X120210Y38100D01*
X122875D01*
X124208Y36767D01*
Y35434D01*
X122875Y34101D01*
X120210D01*
X118877Y35434D01*
X126874Y42099D02*
Y34101D01*
X130873D01*
X132206Y35434D01*
Y40766D01*
X130873Y42099D01*
X126874D01*
X134872Y34101D02*
Y39433D01*
X137537Y42099D01*
X140203Y39433D01*
Y34101D01*
Y38100D01*
X134872D01*
X157228Y25526D02*
X155896Y26859D01*
X153230D01*
X151897Y25526D01*
Y24193D01*
X153230Y22860D01*
X155896D01*
X157228Y21527D01*
Y20194D01*
X155896Y18861D01*
X153230D01*
X151897Y20194D01*
X165226Y25526D02*
X163893Y26859D01*
X161227D01*
X159894Y25526D01*
Y20194D01*
X161227Y18861D01*
X163893D01*
X165226Y20194D01*
X167892Y26859D02*
Y18861D01*
X173223D01*
X156399Y91125D02*
X148401D01*
Y95124D01*
X149734Y96457D01*
X152400D01*
X153733Y95124D01*
Y91125D01*
Y93791D02*
X156399Y96457D01*
Y104454D02*
Y99123D01*
X151067Y104454D01*
X149734D01*
X148401Y103122D01*
Y100456D01*
X149734Y99123D01*
X91629Y93728D02*
X83631D01*
Y97727D01*
X84964Y99060D01*
X87630D01*
X88963Y97727D01*
Y93728D01*
Y96394D02*
X91629Y99060D01*
Y101726D02*
Y104392D01*
Y103059D01*
X83631D01*
X84964Y101726D01*
X203137Y208469D02*
X200471D01*
X201804D01*
Y201804D01*
X200471Y200471D01*
X199138D01*
X197806Y201804D01*
X211134Y200471D02*
X205803D01*
X211134Y205803D01*
Y207136D01*
X209802Y208469D01*
X207136D01*
X205803Y207136D01*
X147068Y160209D02*
Y153544D01*
X148401Y152211D01*
X151067D01*
X152400Y153544D01*
Y160209D01*
X155066Y152211D02*
X157732D01*
X156399D01*
Y160209D01*
X155066Y158876D01*
D14*
X27944Y104140D02*
X40640D01*
Y112604D01*
Y123184D02*
Y118952D01*
X38524Y116836D01*
X34292D01*
X32176Y118952D01*
Y123184D01*
X34292Y125300D01*
X36408D01*
Y116836D01*
X40640Y131648D02*
X30060D01*
X34292D01*
Y129532D01*
Y133764D01*
Y131648D01*
X30060D01*
X27944Y133764D01*
X30060Y142228D02*
X32176D01*
Y140112D01*
Y144344D01*
Y142228D01*
X38524D01*
X40640Y144344D01*
X218440Y102870D02*
X205744D01*
Y109218D01*
X207860Y111334D01*
X212092D01*
X214208Y109218D01*
Y102870D01*
Y107102D02*
X218440Y111334D01*
Y115566D02*
Y119798D01*
Y117682D01*
X209976D01*
Y115566D01*
X222672Y130378D02*
Y132494D01*
X220556Y134610D01*
X209976D01*
Y128262D01*
X212092Y126146D01*
X216324D01*
X218440Y128262D01*
Y134610D01*
X205744Y138842D02*
X218440D01*
X212092D01*
X209976Y140958D01*
Y145190D01*
X212092Y147306D01*
X218440D01*
X207860Y153653D02*
X209976D01*
Y151538D01*
Y155770D01*
Y153653D01*
X216324D01*
X218440Y155770D01*
M02*
