G04*
G04 #@! TF.GenerationSoftware,Altium Limited,Altium Designer,25.1.2 (22)*
G04*
G04 Layer_Physical_Order=2*
G04 Layer_Color=16711680*
%FSLAX44Y44*%
%MOMM*%
G71*
G04*
G04 #@! TF.SameCoordinates,00E531A8-DBC4-4BD0-9775-E622AF79C632*
G04*
G04*
G04 #@! TF.FilePolarity,Positive*
G04*
G01*
G75*
%ADD23C,0.6604*%
%ADD26C,0.2540*%
%ADD27C,0.3000*%
%ADD28C,1.5300*%
%ADD29C,1.2700*%
%ADD30C,0.6000*%
G36*
X247650Y186690D02*
X177800D01*
Y157480D01*
X141176D01*
X140555Y158980D01*
X141427Y159852D01*
X142200Y161720D01*
X136730D01*
X131260D01*
X132033Y159852D01*
X132905Y158980D01*
X132284Y157480D01*
X119176D01*
X118555Y158980D01*
X119427Y159852D01*
X120200Y161720D01*
X114730D01*
X109260D01*
X110033Y159852D01*
X110905Y158980D01*
X110284Y157480D01*
X98900D01*
Y171141D01*
X122181D01*
X123167Y170155D01*
X124830Y169466D01*
X126630D01*
X128293Y170155D01*
X129565Y171427D01*
X130254Y173090D01*
Y174890D01*
X129565Y176553D01*
X128293Y177825D01*
X126630Y178514D01*
X124830D01*
X123167Y177825D01*
X122181Y176839D01*
X98900D01*
Y186690D01*
X81897D01*
X79447Y189140D01*
Y190903D01*
X81035Y191819D01*
X82501Y193285D01*
X83537Y195081D01*
X84074Y197083D01*
Y199157D01*
X83537Y201159D01*
X82501Y202955D01*
X81035Y204421D01*
X79239Y205457D01*
X77237Y205994D01*
X75163D01*
X73161Y205457D01*
X71365Y204421D01*
X69899Y202955D01*
X68863Y201159D01*
X68326Y199157D01*
Y197083D01*
X68863Y195081D01*
X69899Y193285D01*
X71365Y191819D01*
X73161Y190783D01*
X73750Y190625D01*
Y187960D01*
X73750Y187960D01*
X72473Y186690D01*
X0D01*
Y280670D01*
X247650D01*
Y186690D01*
D02*
G37*
G36*
X92710Y154933D02*
X248730D01*
Y1295D01*
X1063Y6D01*
X0Y1063D01*
Y182873D01*
X64770D01*
X92710Y154933D01*
D02*
G37*
%LPC*%
G36*
X78678Y268254D02*
X76262D01*
X73929Y267629D01*
X71837Y266421D01*
X70129Y264713D01*
X68921Y262621D01*
X68296Y260288D01*
Y257872D01*
X68921Y255539D01*
X70129Y253447D01*
X71837Y251739D01*
X73929Y250531D01*
X76262Y249906D01*
X78678D01*
X81011Y250531D01*
X83103Y251739D01*
X84811Y253447D01*
X86019Y255539D01*
X86644Y257872D01*
Y260288D01*
X86019Y262621D01*
X84811Y264713D01*
X83103Y266421D01*
X81011Y267629D01*
X78678Y268254D01*
D02*
G37*
G36*
X138430Y237020D02*
Y232820D01*
X142630D01*
X141857Y234688D01*
X140298Y236247D01*
X138430Y237020D01*
D02*
G37*
G36*
X116430D02*
Y232820D01*
X120630D01*
X119857Y234688D01*
X118298Y236247D01*
X116430Y237020D01*
D02*
G37*
G36*
X135890D02*
X134022Y236247D01*
X132463Y234688D01*
X131690Y232820D01*
X135890D01*
Y237020D01*
D02*
G37*
G36*
X113890D02*
X112022Y236247D01*
X110463Y234688D01*
X109690Y232820D01*
X113890D01*
Y237020D01*
D02*
G37*
G36*
X165100Y236728D02*
X163027D01*
X161024Y236191D01*
X159229Y235155D01*
X157763Y233689D01*
X156726Y231893D01*
X156189Y229891D01*
Y228897D01*
X155345Y228053D01*
X143331D01*
X142329Y229553D01*
X142630Y230280D01*
X137160D01*
X131690D01*
X131991Y229553D01*
X131184Y228136D01*
X131000Y228025D01*
X130047Y227836D01*
X129122Y227218D01*
X129122Y227218D01*
X126978Y225074D01*
X125260D01*
X123597Y224385D01*
X122325Y223113D01*
X121636Y221450D01*
Y219650D01*
X122325Y217987D01*
X123597Y216715D01*
X125260Y216026D01*
X127060D01*
X128723Y216715D01*
X129995Y217987D01*
X130684Y219650D01*
Y220723D01*
X132317Y222355D01*
X156525D01*
X156525Y222355D01*
X157615Y222572D01*
X158540Y223190D01*
X158592D01*
X159229Y222553D01*
X161024Y221517D01*
X163027Y220980D01*
X165100D01*
X167103Y221517D01*
X168898Y222553D01*
X170364Y224019D01*
X171401Y225815D01*
X171937Y227817D01*
Y229891D01*
X171401Y231893D01*
X170364Y233689D01*
X168898Y235155D01*
X167103Y236191D01*
X165100Y236728D01*
D02*
G37*
G36*
X120630Y230280D02*
X116430D01*
Y226080D01*
X118298Y226853D01*
X119857Y228412D01*
X120630Y230280D01*
D02*
G37*
G36*
X113890D02*
X109690D01*
X110463Y228412D01*
X112022Y226853D01*
X113890Y226080D01*
Y230280D01*
D02*
G37*
G36*
X78678Y232694D02*
X76262D01*
X73929Y232069D01*
X71837Y230861D01*
X70129Y229153D01*
X68921Y227061D01*
X68296Y224728D01*
Y222312D01*
X68921Y219979D01*
X70129Y217887D01*
X71837Y216179D01*
X73929Y214971D01*
X76262Y214346D01*
X78678D01*
X81011Y214971D01*
X83103Y216179D01*
X84811Y217887D01*
X86019Y219979D01*
X86644Y222312D01*
Y224728D01*
X86019Y227061D01*
X84811Y229153D01*
X83103Y230861D01*
X81011Y232069D01*
X78678Y232694D01*
D02*
G37*
G36*
X116430Y215020D02*
Y210820D01*
X120630D01*
X119857Y212688D01*
X118298Y214247D01*
X116430Y215020D01*
D02*
G37*
G36*
X138430D02*
Y210820D01*
X142630D01*
X141857Y212688D01*
X140298Y214247D01*
X138430Y215020D01*
D02*
G37*
G36*
X113890D02*
X112022Y214247D01*
X110463Y212688D01*
X109690Y210820D01*
X113890D01*
Y215020D01*
D02*
G37*
G36*
X135890D02*
X134022Y214247D01*
X132463Y212688D01*
X131690Y210820D01*
X135890D01*
Y215020D01*
D02*
G37*
G36*
X236292Y218470D02*
X236220D01*
Y209550D01*
X245140D01*
Y209622D01*
X244446Y212213D01*
X243104Y214537D01*
X241207Y216434D01*
X238883Y217776D01*
X236292Y218470D01*
D02*
G37*
G36*
X233680D02*
X233608D01*
X231017Y217776D01*
X228693Y216434D01*
X226796Y214537D01*
X225454Y212213D01*
X224760Y209622D01*
Y209550D01*
X233680D01*
Y218470D01*
D02*
G37*
G36*
X142630Y208280D02*
X138430D01*
Y204080D01*
X140298Y204853D01*
X141857Y206412D01*
X142630Y208280D01*
D02*
G37*
G36*
X120630D02*
X116430D01*
Y204080D01*
X118298Y204853D01*
X119857Y206412D01*
X120630Y208280D01*
D02*
G37*
G36*
X135890D02*
X131690D01*
X132463Y206412D01*
X134022Y204853D01*
X135890Y204080D01*
Y208280D01*
D02*
G37*
G36*
X113890D02*
X109690D01*
X110463Y206412D01*
X112022Y204853D01*
X113890Y204080D01*
Y208280D01*
D02*
G37*
G36*
X245140Y207010D02*
X236220D01*
Y198090D01*
X236292D01*
X238883Y198784D01*
X241207Y200126D01*
X243104Y202023D01*
X244446Y204347D01*
X245140Y206938D01*
Y207010D01*
D02*
G37*
G36*
X233680D02*
X224760D01*
Y206938D01*
X225454Y204347D01*
X226796Y202023D01*
X228693Y200126D01*
X231017Y198784D01*
X233608Y198090D01*
X233680D01*
Y207010D01*
D02*
G37*
G36*
X116000Y190460D02*
Y186260D01*
X120200D01*
X119427Y188128D01*
X117868Y189687D01*
X116000Y190460D01*
D02*
G37*
G36*
X138000D02*
Y186260D01*
X142200D01*
X141427Y188128D01*
X139868Y189687D01*
X138000Y190460D01*
D02*
G37*
G36*
X113460D02*
X111592Y189687D01*
X110033Y188128D01*
X109260Y186260D01*
X113460D01*
Y190460D01*
D02*
G37*
G36*
X135460D02*
X133592Y189687D01*
X132033Y188128D01*
X131260Y186260D01*
X135460D01*
Y190460D01*
D02*
G37*
G36*
X142200Y183720D02*
X138000D01*
Y179520D01*
X139868Y180293D01*
X141427Y181852D01*
X142200Y183720D01*
D02*
G37*
G36*
X120200D02*
X116000D01*
Y179520D01*
X117868Y180293D01*
X119427Y181852D01*
X120200Y183720D01*
D02*
G37*
G36*
X135460D02*
X131260D01*
X132033Y181852D01*
X133592Y180293D01*
X135460Y179520D01*
Y183720D01*
D02*
G37*
G36*
X113460D02*
X109260D01*
X110033Y181852D01*
X111592Y180293D01*
X113460Y179520D01*
Y183720D01*
D02*
G37*
G36*
X116000Y168460D02*
Y164260D01*
X120200D01*
X119427Y166128D01*
X117868Y167687D01*
X116000Y168460D01*
D02*
G37*
G36*
X138000D02*
Y164260D01*
X142200D01*
X141427Y166128D01*
X139868Y167687D01*
X138000Y168460D01*
D02*
G37*
G36*
X113460D02*
X111592Y167687D01*
X110033Y166128D01*
X109260Y164260D01*
X113460D01*
Y168460D01*
D02*
G37*
G36*
X135460D02*
X133592Y167687D01*
X132033Y166128D01*
X131260Y164260D01*
X135460D01*
Y168460D01*
D02*
G37*
G36*
X55519Y170632D02*
X53601D01*
X51828Y169898D01*
X50472Y168541D01*
X49738Y166769D01*
Y164851D01*
X50472Y163079D01*
X51828Y161722D01*
X53601Y160988D01*
X55519D01*
X57291Y161722D01*
X58648Y163079D01*
X59382Y164851D01*
Y166769D01*
X58648Y168541D01*
X57291Y169898D01*
X55519Y170632D01*
D02*
G37*
G36*
Y100632D02*
X53601D01*
X51828Y99898D01*
X50472Y98541D01*
X49738Y96769D01*
Y94851D01*
X50472Y93079D01*
X51828Y91722D01*
X53601Y90988D01*
X55519D01*
X57291Y91722D01*
X58648Y93079D01*
X59382Y94851D01*
Y96769D01*
X58648Y98541D01*
X57291Y99898D01*
X55519Y100632D01*
D02*
G37*
G36*
X233369Y100072D02*
X231451D01*
X229679Y99338D01*
X228322Y97981D01*
X227588Y96209D01*
Y94291D01*
X228322Y92519D01*
X229679Y91162D01*
X231451Y90428D01*
X233369D01*
X235141Y91162D01*
X236498Y92519D01*
X237232Y94291D01*
Y96209D01*
X236498Y97981D01*
X235141Y99338D01*
X233369Y100072D01*
D02*
G37*
G36*
X77237Y132334D02*
X75163D01*
X73161Y131797D01*
X71365Y130761D01*
X69899Y129295D01*
X68863Y127499D01*
X68326Y125497D01*
Y123423D01*
X68863Y121421D01*
X69899Y119625D01*
X71365Y118159D01*
X73117Y117148D01*
Y112230D01*
X73117Y112230D01*
X73351Y111050D01*
X74020Y110050D01*
X119463Y64606D01*
X119464Y64606D01*
X120366Y64003D01*
Y62292D01*
X120991Y59959D01*
X122199Y57867D01*
X123907Y56159D01*
X125999Y54951D01*
X128332Y54326D01*
X130748D01*
X133081Y54951D01*
X135173Y56159D01*
X136881Y57867D01*
X138089Y59959D01*
X138714Y62292D01*
Y64708D01*
X138089Y67041D01*
X136881Y69133D01*
X135173Y70841D01*
X133081Y72049D01*
X130748Y72674D01*
X128332D01*
X125999Y72049D01*
X123907Y70841D01*
X121870Y70921D01*
X79283Y113507D01*
Y117148D01*
X81035Y118159D01*
X82501Y119625D01*
X83537Y121421D01*
X84074Y123423D01*
Y125497D01*
X83537Y127499D01*
X82501Y129295D01*
X81035Y130761D01*
X79239Y131797D01*
X77237Y132334D01*
D02*
G37*
G36*
X100268Y72674D02*
X97852D01*
X95519Y72049D01*
X93427Y70841D01*
X91719Y69133D01*
X90511Y67041D01*
X89886Y64708D01*
Y62292D01*
X90511Y59959D01*
X91719Y57867D01*
X93427Y56159D01*
X95519Y54951D01*
X97852Y54326D01*
X100268D01*
X102601Y54951D01*
X104693Y56159D01*
X106401Y57867D01*
X107609Y59959D01*
X108234Y62292D01*
Y64708D01*
X107609Y67041D01*
X106401Y69133D01*
X104693Y70841D01*
X102601Y72049D01*
X100268Y72674D01*
D02*
G37*
G36*
X69922Y52100D02*
X69850D01*
Y43180D01*
X78770D01*
Y43252D01*
X78076Y45843D01*
X76734Y48167D01*
X74837Y50064D01*
X72513Y51406D01*
X69922Y52100D01*
D02*
G37*
G36*
X67310D02*
X67238D01*
X64647Y51406D01*
X62323Y50064D01*
X60426Y48167D01*
X59084Y45843D01*
X58390Y43252D01*
Y43180D01*
X67310D01*
Y52100D01*
D02*
G37*
G36*
X163597Y131064D02*
X161523D01*
X159521Y130527D01*
X157725Y129491D01*
X156259Y128025D01*
X155223Y126229D01*
X154686Y124227D01*
Y122153D01*
X155223Y120151D01*
X156259Y118355D01*
X157725Y116889D01*
X158207Y116611D01*
Y54732D01*
X156479Y54269D01*
X154387Y53061D01*
X152679Y51353D01*
X151471Y49261D01*
X150846Y46928D01*
Y44512D01*
X151471Y42179D01*
X152679Y40087D01*
X154387Y38379D01*
X156479Y37171D01*
X158812Y36546D01*
X161228D01*
X163561Y37171D01*
X165653Y38379D01*
X167361Y40087D01*
X168569Y42179D01*
X169194Y44512D01*
Y46928D01*
X168569Y49261D01*
X167361Y51353D01*
X165653Y53061D01*
X164373Y53800D01*
Y115524D01*
X165599Y115853D01*
X167395Y116889D01*
X168861Y118355D01*
X169897Y120151D01*
X170434Y122153D01*
Y124227D01*
X169897Y126229D01*
X168861Y128025D01*
X167395Y129491D01*
X165599Y130527D01*
X163597Y131064D01*
D02*
G37*
G36*
X78770Y40640D02*
X69850D01*
Y31720D01*
X69922D01*
X72513Y32414D01*
X74837Y33756D01*
X76734Y35653D01*
X78076Y37977D01*
X78770Y40568D01*
Y40640D01*
D02*
G37*
G36*
X67310D02*
X58390D01*
Y40568D01*
X59084Y37977D01*
X60426Y35653D01*
X62323Y33756D01*
X64647Y32414D01*
X67238Y31720D01*
X67310D01*
Y40640D01*
D02*
G37*
%LPD*%
D23*
X54560Y95810D02*
D03*
Y165810D02*
D03*
X232410Y165250D02*
D03*
Y95250D02*
D03*
D26*
X90568Y173990D02*
X125730D01*
X76598Y187960D02*
X90568Y173990D01*
X76598Y187960D02*
Y197722D01*
X76200Y198120D02*
X76598Y197722D01*
X156525Y225204D02*
X158231Y226910D01*
X162119D02*
X164063Y228854D01*
X158231Y226910D02*
X162119D01*
X131137Y225204D02*
X156525D01*
X127000Y221067D02*
X131137Y225204D01*
X127000Y220980D02*
Y221067D01*
D27*
X126212Y63500D02*
X129540D01*
X121644Y66786D02*
X122925D01*
X76200Y112230D02*
Y124460D01*
X122925Y66786D02*
X126212Y63500D01*
X76200Y112230D02*
X121644Y66786D01*
X161290Y121920D02*
X162560Y123190D01*
X161290Y46990D02*
Y121920D01*
X160020Y45720D02*
X161290Y46990D01*
D28*
X68580Y41910D02*
D03*
X99060Y63500D02*
D03*
X160020Y45720D02*
D03*
X234950Y208280D02*
D03*
X77470Y259080D02*
D03*
X129540Y63500D02*
D03*
X77470Y223520D02*
D03*
D29*
X97790Y210820D02*
D03*
X164063Y228854D02*
D03*
X76200Y198120D02*
D03*
Y124460D02*
D03*
X162560Y123190D02*
D03*
D30*
X136730Y184990D02*
D03*
Y162990D02*
D03*
X125730Y173990D02*
D03*
X114730Y184990D02*
D03*
Y162990D02*
D03*
X137160Y231550D02*
D03*
Y209550D02*
D03*
X126160Y220550D02*
D03*
X115160Y231550D02*
D03*
Y209550D02*
D03*
M02*
