G04*
G04 #@! TF.GenerationSoftware,Altium Limited,Altium Designer,26.5.0 (11)*
G04*
G04 Layer_Physical_Order=1*
G04 Layer_Color=255*
G04 Board_Origin=1200000|0*
%FSLAX44Y44*%
%MOMM*%
G71*
G04*
G04 #@! TF.SameCoordinates,4694B4A4-1AAE-40D1-B312-15FC3A239799*
G04*
G04*
G04 #@! TF.FilePolarity,Positive*
G04*
G01*
G75*
%ADD14C,0.2540*%
%ADD15R,0.5000X0.3000*%
%ADD16R,1.4700X1.0400*%
%ADD17R,1.0414X0.2794*%
%ADD18R,1.4200X1.0000*%
%ADD24C,0.6604*%
%ADD27R,2.2098X1.3970*%
%ADD28C,0.3000*%
%ADD29C,1.5300*%
%ADD30C,0.6000*%
%ADD31C,1.2700*%
G36*
X250000Y-859D02*
X0D01*
Y103240D01*
X983Y104333D01*
X1500Y104333D01*
X7460D01*
Y108270D01*
X8730D01*
Y109540D01*
X16477D01*
Y112000D01*
X8730D01*
Y114540D01*
X16477D01*
Y117000D01*
X8730D01*
Y119540D01*
X16477D01*
Y122000D01*
X8730D01*
Y124540D01*
X16477D01*
Y127000D01*
X8730D01*
Y129540D01*
X16477D01*
Y132000D01*
X8730D01*
Y134540D01*
X16477D01*
Y137000D01*
X8730D01*
Y139540D01*
X16477D01*
Y142000D01*
X8730D01*
Y144540D01*
X16477D01*
Y147000D01*
X8730D01*
Y149540D01*
X16477D01*
Y150461D01*
X31944D01*
X35275Y147129D01*
X35943Y146130D01*
X40943Y141130D01*
X41944Y140462D01*
X43123Y140227D01*
X43124Y140227D01*
X51824D01*
X52446Y138727D01*
X49890Y136171D01*
X49222Y135170D01*
X48987Y133991D01*
X48987Y133990D01*
Y123270D01*
X48987Y123270D01*
X48987Y123270D01*
Y112550D01*
X48987Y112549D01*
X49222Y111369D01*
X49890Y110369D01*
X54066Y106193D01*
X54066Y106193D01*
X55066Y105525D01*
X55499Y105438D01*
Y105349D01*
X56246Y105290D01*
X56247Y105290D01*
X56975Y105290D01*
X61712D01*
X62230Y105187D01*
X63046Y105349D01*
X65052D01*
X78197Y92205D01*
Y89784D01*
X72406D01*
Y76336D01*
X90154D01*
Y89784D01*
X91537Y90067D01*
X104366D01*
Y84456D01*
X104867D01*
Y49652D01*
X103139Y49189D01*
X101047Y47981D01*
X99339Y46273D01*
X98131Y44181D01*
X97506Y41848D01*
Y39432D01*
X98131Y37099D01*
X99339Y35007D01*
X101047Y33299D01*
X103139Y32091D01*
X105472Y31466D01*
X107888D01*
X110221Y32091D01*
X112313Y33299D01*
X114021Y35007D01*
X115229Y37099D01*
X115854Y39432D01*
Y41848D01*
X115229Y44181D01*
X114021Y46273D01*
X112313Y47981D01*
X111033Y48720D01*
Y84456D01*
X121614D01*
Y87897D01*
X124726D01*
Y84456D01*
X141974D01*
Y89627D01*
X158766D01*
Y77096D01*
X176514D01*
Y90544D01*
X171956D01*
X171334Y92044D01*
X183957Y104667D01*
X186660D01*
X186660Y104667D01*
X187178Y104770D01*
X191915D01*
X192643Y104770D01*
X192644Y104770D01*
X193391Y104829D01*
Y104918D01*
X193824Y105005D01*
X194824Y105673D01*
X197760Y108609D01*
X198428Y109609D01*
X198663Y110789D01*
X198663Y110789D01*
Y123391D01*
X198663Y123391D01*
X198663Y123391D01*
Y135992D01*
X198663Y135993D01*
X198428Y137172D01*
X197760Y138173D01*
X197760Y138173D01*
X197418Y138516D01*
X197992Y139901D01*
X210973D01*
X210973Y139901D01*
X212064Y140118D01*
X212988Y140736D01*
X217153Y144901D01*
X232413D01*
Y144020D01*
X240160D01*
X247907D01*
Y146687D01*
X246891D01*
Y155671D01*
X243243D01*
Y196720D01*
X243008Y197900D01*
X242340Y198900D01*
X242340Y198900D01*
X238182Y203058D01*
X238419Y203469D01*
X239044Y205802D01*
Y208218D01*
X238419Y210551D01*
X237211Y212643D01*
X235503Y214351D01*
X233411Y215559D01*
X231078Y216184D01*
X228662D01*
X226329Y215559D01*
X224237Y214351D01*
X222529Y212643D01*
X221321Y210551D01*
X220696Y208218D01*
Y205802D01*
X221321Y203469D01*
X222529Y201377D01*
X224237Y199669D01*
X226329Y198461D01*
X228662Y197836D01*
X231078D01*
X233411Y198461D01*
X233822Y198698D01*
X237077Y195443D01*
Y169524D01*
X235577Y168903D01*
X235141Y169338D01*
X233369Y170072D01*
X231451D01*
X229679Y169338D01*
X228322Y167981D01*
X227588Y166209D01*
Y164291D01*
X228322Y162519D01*
X229679Y161162D01*
X231451Y160428D01*
X233369D01*
X235141Y161162D01*
X235577Y161597D01*
X237077Y160976D01*
Y155671D01*
X233429D01*
Y150599D01*
X215974D01*
X215973Y150599D01*
X214883Y150382D01*
X213959Y149764D01*
X209793Y145599D01*
X194407D01*
Y146480D01*
X186660D01*
Y149020D01*
X194407D01*
Y151687D01*
X194407D01*
X193446Y152877D01*
X193446Y152877D01*
Y163576D01*
X194077D01*
X196079Y164113D01*
X197875Y165149D01*
X199341Y166615D01*
X199369Y166664D01*
X200837Y166741D01*
Y166741D01*
X225983D01*
Y183759D01*
X200837D01*
Y176693D01*
X199355Y176289D01*
X199337Y176289D01*
X197875Y177751D01*
X196123Y178762D01*
Y190500D01*
X196123Y190500D01*
X195889Y191680D01*
X195220Y192680D01*
X195220Y192680D01*
X184842Y203058D01*
X185079Y203469D01*
X185704Y205802D01*
Y208218D01*
X185079Y210551D01*
X183871Y212643D01*
X182163Y214351D01*
X180071Y215559D01*
X177738Y216184D01*
X175322D01*
X172989Y215559D01*
X170897Y214351D01*
X169189Y212643D01*
X167981Y210551D01*
X167356Y208218D01*
Y205802D01*
X167981Y203469D01*
X169189Y201377D01*
X170897Y199669D01*
X172989Y198461D01*
X175322Y197836D01*
X177738D01*
X180071Y198461D01*
X180481Y198698D01*
X189957Y189223D01*
Y178762D01*
X188205Y177751D01*
X186739Y176285D01*
X185703Y174489D01*
X185166Y172487D01*
Y170413D01*
X185703Y168411D01*
X186739Y166615D01*
X187748Y165606D01*
Y155808D01*
X186248Y155694D01*
X185547Y155833D01*
X181362D01*
X180780Y155833D01*
X180779Y155833D01*
X179929Y155671D01*
Y155664D01*
X179600Y155598D01*
X178599Y154930D01*
X176249Y152580D01*
X175581Y151580D01*
X175346Y150400D01*
X175346Y150399D01*
Y130101D01*
X175346Y130100D01*
X175581Y128920D01*
X176249Y127920D01*
X178496Y125673D01*
X179496Y125005D01*
X179929Y124918D01*
Y115599D01*
X158810D01*
X158759Y115789D01*
X157723Y117585D01*
X156257Y119051D01*
X154461Y120087D01*
X152458Y120624D01*
X150385D01*
X148383Y120087D01*
X146587Y119051D01*
X145121Y117585D01*
X144084Y115789D01*
X143751Y114545D01*
X141974D01*
Y116204D01*
X139969D01*
Y129355D01*
X139752Y130445D01*
X139134Y131369D01*
X139134Y131369D01*
X136971Y133533D01*
X137254Y134216D01*
X137254D01*
Y138200D01*
X138270D01*
Y140970D01*
X133230D01*
X128190D01*
Y138200D01*
X129206D01*
Y134216D01*
X130261Y133153D01*
X130425Y132328D01*
X131043Y131404D01*
X134271Y128175D01*
Y116204D01*
X124726D01*
Y103156D01*
X141974D01*
Y108847D01*
X144583D01*
X145121Y107915D01*
X146587Y106449D01*
X148383Y105413D01*
X150385Y104876D01*
X152458D01*
X154461Y105413D01*
X156257Y106449D01*
X157723Y107915D01*
X158759Y109711D01*
X158810Y109901D01*
X178350D01*
X178971Y108401D01*
X166363Y95793D01*
X141974D01*
Y97504D01*
X124726D01*
Y94063D01*
X121614D01*
Y97504D01*
X104366D01*
Y96233D01*
X82226D01*
X69875Y108584D01*
X70496Y110084D01*
X89158D01*
X89183Y109991D01*
X90219Y108195D01*
X91685Y106729D01*
X93481Y105693D01*
X95483Y105156D01*
X97557D01*
X99559Y105693D01*
X101355Y106729D01*
X102821Y108195D01*
X102866Y108274D01*
X104366Y107872D01*
Y103156D01*
X121614D01*
Y116204D01*
X121313D01*
Y134216D01*
X122254D01*
Y143200D01*
X123270D01*
Y145970D01*
X118230D01*
Y147240D01*
X116960D01*
Y151280D01*
X115431D01*
X114030Y151520D01*
X114030Y152389D01*
X114030Y157990D01*
X105410D01*
Y151520D01*
X111789D01*
X113190Y151280D01*
X113190Y150652D01*
X113190Y150368D01*
Y148611D01*
X113014Y147184D01*
X95266D01*
Y141159D01*
X68961D01*
Y145349D01*
Y156191D01*
X68961D01*
X68536Y157217D01*
X76800Y165481D01*
X76971Y165383D01*
X78973Y164846D01*
X81047D01*
X83049Y165383D01*
X84845Y166419D01*
X86311Y167885D01*
X87347Y169681D01*
X87884Y171683D01*
Y173757D01*
X87347Y175759D01*
X86311Y177555D01*
X86141Y177724D01*
X86452Y178189D01*
X86669Y179279D01*
X86669Y179279D01*
Y198276D01*
X87361Y198461D01*
X89453Y199669D01*
X91161Y201377D01*
X92369Y203469D01*
X92994Y205802D01*
Y208218D01*
X92369Y210551D01*
X91161Y212643D01*
X89453Y214351D01*
X87361Y215559D01*
X85028Y216184D01*
X82612D01*
X80279Y215559D01*
X78187Y214351D01*
X76479Y212643D01*
X75271Y210551D01*
X74646Y208218D01*
Y205802D01*
X75271Y203469D01*
X76479Y201377D01*
X78187Y199669D01*
X80279Y198461D01*
X80971Y198276D01*
Y180594D01*
X78973D01*
X76971Y180057D01*
X75175Y179021D01*
X73709Y177555D01*
X72673Y175759D01*
X72136Y173757D01*
Y171683D01*
X72673Y169681D01*
X72771Y169510D01*
X62265Y159003D01*
X61647Y158079D01*
X61430Y156989D01*
X60297Y156191D01*
X55499D01*
Y150492D01*
X55437Y150450D01*
X55437Y150450D01*
X51380Y146393D01*
X44401D01*
X40304Y150490D01*
X39304Y151158D01*
X35138Y155324D01*
X34214Y155942D01*
X33124Y156159D01*
X33123Y156159D01*
X15461D01*
Y156191D01*
X11893D01*
Y186518D01*
X13081Y187706D01*
X15007D01*
X17009Y188243D01*
X18805Y189279D01*
X20271Y190745D01*
X21307Y192541D01*
X21844Y194543D01*
Y196617D01*
X21307Y198619D01*
X20271Y200415D01*
X18805Y201881D01*
X17009Y202917D01*
X15007Y203454D01*
X12933D01*
X10931Y202917D01*
X9135Y201881D01*
X7669Y200415D01*
X6633Y198619D01*
X6096Y196617D01*
Y194543D01*
X6633Y192541D01*
X7571Y190916D01*
X6630Y189975D01*
X5961Y188975D01*
X5727Y187795D01*
X5727Y187795D01*
Y156191D01*
X1999D01*
Y153321D01*
X1416Y153097D01*
X0Y154160D01*
Y281141D01*
X250000D01*
Y-859D01*
D02*
G37*
%LPC*%
G36*
X48053Y184279D02*
X22907D01*
Y167261D01*
X48053D01*
Y184279D01*
D02*
G37*
G36*
X55439Y170592D02*
X53521D01*
X51749Y169858D01*
X50392Y168501D01*
X49658Y166729D01*
Y164811D01*
X50392Y163039D01*
X51749Y161682D01*
X53521Y160948D01*
X55439D01*
X57211Y161682D01*
X58568Y163039D01*
X59302Y164811D01*
Y166729D01*
X58568Y168501D01*
X57211Y169858D01*
X55439Y170592D01*
D02*
G37*
G36*
X114030Y167000D02*
X105410D01*
Y160530D01*
X114030D01*
Y167000D01*
D02*
G37*
G36*
X102870D02*
X94250D01*
Y160530D01*
X102870D01*
Y167000D01*
D02*
G37*
G36*
Y157990D02*
X94250D01*
Y151520D01*
X102870D01*
Y157990D01*
D02*
G37*
G36*
X138270Y151280D02*
X134500D01*
Y148510D01*
X138270D01*
Y151280D01*
D02*
G37*
G36*
X123270D02*
X119500D01*
Y148510D01*
X123270D01*
Y151280D01*
D02*
G37*
G36*
X131960D02*
X128190D01*
Y148510D01*
X131960D01*
Y151280D01*
D02*
G37*
G36*
X138270Y145970D02*
X133230D01*
X128190D01*
Y143510D01*
X133230D01*
X138270D01*
Y145970D01*
D02*
G37*
G36*
X247907Y141480D02*
X240160D01*
X232413D01*
Y139020D01*
X240160D01*
X247907D01*
Y141480D01*
D02*
G37*
G36*
Y136480D02*
X240160D01*
X232413D01*
Y134020D01*
X240160D01*
X247907D01*
Y136480D01*
D02*
G37*
G36*
Y131480D02*
X240160D01*
X232413D01*
Y129020D01*
X240160D01*
X247907D01*
Y131480D01*
D02*
G37*
G36*
Y126480D02*
X240160D01*
X232413D01*
Y124020D01*
X240160D01*
X247907D01*
Y126480D01*
D02*
G37*
G36*
Y121480D02*
X240160D01*
X232413D01*
Y119020D01*
X240160D01*
X247907D01*
Y121480D01*
D02*
G37*
G36*
Y116480D02*
X240160D01*
X232413D01*
Y114020D01*
X240160D01*
X247907D01*
Y116480D01*
D02*
G37*
G36*
Y111480D02*
X240160D01*
X232413D01*
Y109020D01*
X240160D01*
X247907D01*
Y111480D01*
D02*
G37*
G36*
X16477Y107000D02*
X10000D01*
Y104333D01*
X16477D01*
Y107000D01*
D02*
G37*
G36*
X247907Y106480D02*
X241430D01*
Y103813D01*
X247907D01*
Y106480D01*
D02*
G37*
G36*
X238890D02*
X232413D01*
Y103813D01*
X238890D01*
Y106480D01*
D02*
G37*
G36*
X55439Y100592D02*
X53521D01*
X51749Y99858D01*
X50392Y98501D01*
X49658Y96729D01*
Y94811D01*
X50392Y93039D01*
X51749Y91682D01*
X53521Y90948D01*
X55439D01*
X57211Y91682D01*
X58568Y93039D01*
X59302Y94811D01*
Y96729D01*
X58568Y98501D01*
X57211Y99858D01*
X55439Y100592D01*
D02*
G37*
G36*
X233369Y100072D02*
X231451D01*
X229679Y99338D01*
X228322Y97981D01*
X227588Y96209D01*
Y94291D01*
X228322Y92519D01*
X229679Y91162D01*
X231451Y90428D01*
X233369D01*
X235141Y91162D01*
X236498Y92519D01*
X237232Y94291D01*
Y96209D01*
X236498Y97981D01*
X235141Y99338D01*
X233369Y100072D01*
D02*
G37*
G36*
X48053Y94279D02*
X22907D01*
Y77261D01*
X48053D01*
Y94279D01*
D02*
G37*
G36*
X225983Y93759D02*
X200837D01*
Y76741D01*
X225983D01*
Y93759D01*
D02*
G37*
G36*
X177530Y72760D02*
X168910D01*
Y66290D01*
X177530D01*
Y72760D01*
D02*
G37*
G36*
X166370D02*
X157750D01*
Y66290D01*
X166370D01*
Y72760D01*
D02*
G37*
G36*
X91170Y72000D02*
X82550D01*
Y65530D01*
X91170D01*
Y72000D01*
D02*
G37*
G36*
X80010D02*
X71390D01*
Y65530D01*
X80010D01*
Y72000D01*
D02*
G37*
G36*
X177530Y63750D02*
X168910D01*
Y57280D01*
X177530D01*
Y63750D01*
D02*
G37*
G36*
X166370D02*
X157750D01*
Y57280D01*
X166370D01*
Y63750D01*
D02*
G37*
G36*
X91170Y62990D02*
X82550D01*
Y56520D01*
X91170D01*
Y62990D01*
D02*
G37*
G36*
X80010D02*
X71390D01*
Y56520D01*
X80010D01*
Y62990D01*
D02*
G37*
G36*
X148238Y50830D02*
X148167D01*
Y41910D01*
X157087D01*
Y41982D01*
X156392Y44573D01*
X155051Y46897D01*
X153153Y48794D01*
X150830Y50136D01*
X148238Y50830D01*
D02*
G37*
G36*
X145627D02*
X145555D01*
X142963Y50136D01*
X140640Y48794D01*
X138743Y46897D01*
X137401Y44573D01*
X136707Y41982D01*
Y41910D01*
X145627D01*
Y50830D01*
D02*
G37*
G36*
X187898Y49814D02*
X185482D01*
X183149Y49189D01*
X181057Y47981D01*
X179349Y46273D01*
X178141Y44181D01*
X177516Y41848D01*
Y39432D01*
X178141Y37099D01*
X179349Y35007D01*
X181057Y33299D01*
X183149Y32091D01*
X185482Y31466D01*
X187898D01*
X190231Y32091D01*
X192323Y33299D01*
X194031Y35007D01*
X195239Y37099D01*
X195864Y39432D01*
Y41848D01*
X195239Y44181D01*
X194031Y46273D01*
X192323Y47981D01*
X190231Y49189D01*
X187898Y49814D01*
D02*
G37*
G36*
X68518D02*
X66102D01*
X63769Y49189D01*
X61677Y47981D01*
X59969Y46273D01*
X58761Y44181D01*
X58136Y41848D01*
Y39432D01*
X58761Y37099D01*
X59969Y35007D01*
X61677Y33299D01*
X63769Y32091D01*
X66102Y31466D01*
X68518D01*
X70851Y32091D01*
X72943Y33299D01*
X74651Y35007D01*
X75859Y37099D01*
X76484Y39432D01*
Y41848D01*
X75859Y44181D01*
X74651Y46273D01*
X72943Y47981D01*
X70851Y49189D01*
X68518Y49814D01*
D02*
G37*
G36*
X157087Y39370D02*
X148167D01*
Y30450D01*
X148238D01*
X150830Y31144D01*
X153153Y32486D01*
X155051Y34383D01*
X156392Y36707D01*
X157087Y39298D01*
Y39370D01*
D02*
G37*
G36*
X145627D02*
X136707D01*
Y39298D01*
X137401Y36707D01*
X138743Y34383D01*
X140640Y32486D01*
X142963Y31144D01*
X145555Y30450D01*
X145627D01*
Y39370D01*
D02*
G37*
%LPD*%
D14*
X64279Y153397D02*
Y156989D01*
X80010Y172720D01*
X62230Y153270D02*
X64152D01*
X64279Y153397D01*
X66120Y108310D02*
X81236Y93194D01*
X80010Y172720D02*
Y175469D01*
X83820Y179279D02*
Y207010D01*
X80010Y175469D02*
X83820Y179279D01*
X33124Y153310D02*
X38124Y148310D01*
X62310Y138310D02*
X101990D01*
X62310Y108310D02*
X66120D01*
X8810Y153310D02*
X33124D01*
X101990Y138310D02*
X104140Y140460D01*
X96520Y113030D02*
X107160D01*
X107300Y113170D01*
Y113270D01*
X135366Y111696D02*
X137120D01*
X150368D01*
X151422Y112750D01*
X137120Y109680D02*
Y111696D01*
X133350Y109680D02*
X135366Y111696D01*
X137120D02*
Y129355D01*
X133350Y109680D02*
X137120D01*
X151422Y112750D02*
X186660D01*
X118202Y142268D02*
X118230Y142240D01*
X111788Y142268D02*
X118202D01*
X110833Y143223D02*
X111788Y142268D01*
X106290Y138680D02*
X110833Y143223D01*
X190597Y166258D02*
X193040Y168701D01*
X190470Y152750D02*
X190597Y152877D01*
X185547Y152750D02*
X190470D01*
X193040Y168701D02*
Y171450D01*
X190597Y152877D02*
Y166258D01*
X240160Y147750D02*
Y152750D01*
X215973Y147750D02*
X240160D01*
X210973Y142750D02*
X215973Y147750D01*
X186660Y142750D02*
X210973D01*
X185547Y152750D02*
X186660D01*
X132800Y137240D02*
X132827D01*
X133057Y133418D02*
Y137010D01*
Y133418D02*
X137120Y129355D01*
X132827Y137240D02*
X133057Y137010D01*
D15*
X133230Y137240D02*
D03*
X118230Y142240D02*
D03*
Y147240D02*
D03*
X133230D02*
D03*
Y142240D02*
D03*
X118230Y137240D02*
D03*
D16*
X104140Y159260D02*
D03*
X81280Y64260D02*
D03*
X167640Y65020D02*
D03*
Y83820D02*
D03*
X81280Y83060D02*
D03*
X104140Y140460D02*
D03*
D17*
X240160Y107750D02*
D03*
Y112750D02*
D03*
Y117750D02*
D03*
Y122750D02*
D03*
Y127750D02*
D03*
Y132750D02*
D03*
Y137750D02*
D03*
Y142750D02*
D03*
X186660Y147750D02*
D03*
X8730Y108270D02*
D03*
Y113270D02*
D03*
Y143270D02*
D03*
Y133270D02*
D03*
Y138270D02*
D03*
Y148270D02*
D03*
Y128270D02*
D03*
Y118270D02*
D03*
Y123270D02*
D03*
X62230Y138270D02*
D03*
Y133270D02*
D03*
Y143270D02*
D03*
Y123270D02*
D03*
Y118270D02*
D03*
Y128270D02*
D03*
Y153270D02*
D03*
Y148270D02*
D03*
Y113270D02*
D03*
Y108270D02*
D03*
X8730Y153270D02*
D03*
X240160Y152750D02*
D03*
X186660D02*
D03*
X240160Y147750D02*
D03*
X186660Y142750D02*
D03*
Y137750D02*
D03*
Y132750D02*
D03*
Y127750D02*
D03*
Y122750D02*
D03*
Y117750D02*
D03*
Y112750D02*
D03*
Y107750D02*
D03*
D18*
X112990Y109680D02*
D03*
X133350Y90980D02*
D03*
X112990D02*
D03*
X133350Y109680D02*
D03*
D24*
X54480Y165770D02*
D03*
Y95770D02*
D03*
X232410Y165250D02*
D03*
Y95250D02*
D03*
D27*
X35480Y175770D02*
D03*
Y85770D02*
D03*
X213410Y175250D02*
D03*
Y85250D02*
D03*
D28*
X52657Y143310D02*
X62190D01*
X43123D02*
X52657D01*
X57617Y148270D01*
X62230D01*
X110820Y93150D02*
X112990Y90980D01*
X81280Y93150D02*
X110820D01*
X111450Y90980D02*
X112990D01*
X133350D01*
X81236Y93194D02*
X81280Y93150D01*
X133350Y90980D02*
X135080Y92710D01*
X167640D01*
Y83820D02*
Y92710D01*
X182680Y107750D01*
X186660D01*
X81280Y83060D02*
Y93150D01*
X38124Y148310D02*
X43123Y143310D01*
X8810Y153310D02*
Y187795D01*
X62333Y113167D02*
X96383D01*
X96520Y113030D01*
X62230Y113270D02*
X62333Y113167D01*
X52070Y123270D02*
Y133991D01*
X56246Y138167D01*
X62127D01*
X62230Y138270D01*
X62127Y108373D02*
X62230Y108270D01*
X56246Y108373D02*
X62127D01*
X52070Y112549D02*
X56246Y108373D01*
X52070Y112549D02*
Y123270D01*
X62190Y143310D02*
X62230Y143270D01*
X52070Y123270D02*
X52070Y123270D01*
X62230D01*
X13970Y192955D02*
Y195580D01*
X8810Y187795D02*
X13970Y192955D01*
X107390Y113180D02*
X110890Y109680D01*
X114730D01*
X176530Y207010D02*
X193040Y190500D01*
X229870Y207010D02*
X240160Y196720D01*
Y152750D02*
Y196720D01*
X193040Y171450D02*
Y190500D01*
X114730Y109680D02*
X118230Y113180D01*
Y137240D01*
X195580Y123391D02*
Y135993D01*
X194939Y122750D02*
X195580Y123391D01*
X186660Y137750D02*
X193823D01*
X195580Y135993D01*
Y110789D02*
Y123391D01*
X186763Y107853D02*
X192644D01*
X186660Y122750D02*
X194939D01*
X192644Y107853D02*
X195580Y110789D01*
X186660Y107750D02*
X186763Y107853D01*
X107950Y87480D02*
X111450Y90980D01*
X107950Y41910D02*
Y87480D01*
X106680Y40640D02*
X107950Y41910D01*
X180779Y152750D02*
X185547D01*
X178429Y150400D02*
X180779Y152750D01*
X178429Y130100D02*
Y150400D01*
Y130100D02*
X180676Y127853D01*
X186557D01*
X186660Y127750D01*
D29*
X146897Y40640D02*
D03*
X83820Y207010D02*
D03*
X176530D02*
D03*
X229870D02*
D03*
X67310Y40640D02*
D03*
X106680D02*
D03*
X186690D02*
D03*
D30*
X19520Y25000D02*
D03*
X32020Y50000D02*
D03*
X19520Y75000D02*
D03*
X32020Y100000D02*
D03*
X19520Y125000D02*
D03*
X44520Y25000D02*
D03*
X57020Y50000D02*
D03*
X44520Y125000D02*
D03*
X69520Y25000D02*
D03*
X94520D02*
D03*
X119520D02*
D03*
X132020Y50000D02*
D03*
X144520Y25000D02*
D03*
X157020Y50000D02*
D03*
X144520Y125000D02*
D03*
X157020Y150000D02*
D03*
X169520Y25000D02*
D03*
X194520D02*
D03*
X207020Y50000D02*
D03*
X194520Y75000D02*
D03*
X207020Y100000D02*
D03*
Y150000D02*
D03*
X219520Y25000D02*
D03*
X232020Y50000D02*
D03*
X219520Y125000D02*
D03*
X129540Y69850D02*
D03*
D31*
X80010Y172720D02*
D03*
X96520Y113030D02*
D03*
X151422Y112750D02*
D03*
X193040Y171450D02*
D03*
X13970Y195580D02*
D03*
M02*
