G04*
G04 #@! TF.GenerationSoftware,Altium Limited,Altium Designer,25.1.2 (22)*
G04*
G04 Layer_Color=2752767*
%FSLAX44Y44*%
%MOMM*%
G71*
G04*
G04 #@! TF.SameCoordinates,00E531A8-DBC4-4BD0-9775-E622AF79C632*
G04*
G04*
G04 #@! TF.FilePolarity,Positive*
G04*
G01*
G75*
%ADD33C,0.0508*%
%ADD34C,0.0677*%
D33*
X68580Y39878D02*
X66548Y43942D01*
X70612D01*
X68580Y39878D01*
X52528Y93778D02*
Y97842D01*
X56592D01*
Y93778D01*
X52528D01*
Y163778D02*
Y167842D01*
X56592D01*
Y163778D01*
X52528D01*
X99060Y61468D02*
X97028Y65532D01*
X101092D01*
X99060Y61468D01*
X230378Y163218D02*
Y167282D01*
X234442D01*
Y163218D01*
X230378D01*
Y93218D02*
Y97282D01*
X234442D01*
Y93218D01*
X230378D01*
X160020Y43688D02*
X157988Y47752D01*
X162052D01*
X160020Y43688D01*
X234950Y206248D02*
X232918Y210312D01*
X236982D01*
X234950Y206248D01*
X77470Y257048D02*
X75438Y261112D01*
X79502D01*
X77470Y257048D01*
X129540Y61468D02*
X127508Y65532D01*
X131572D01*
X129540Y61468D01*
X77470Y221488D02*
X75438Y225552D01*
X79502D01*
X77470Y221488D01*
D34*
X99822Y210820D02*
G03*
X99822Y210820I-2032J0D01*
G01*
X166095Y228854D02*
G03*
X166095Y228854I-2032J0D01*
G01*
X78232Y198120D02*
G03*
X78232Y198120I-2032J0D01*
G01*
Y124460D02*
G03*
X78232Y124460I-2032J0D01*
G01*
X164592Y123190D02*
G03*
X164592Y123190I-2032J0D01*
G01*
M02*
