G04*
G04 #@! TF.GenerationSoftware,Altium Limited,Altium Designer,25.1.2 (22)*
G04*
G04 Layer_Physical_Order=1*
G04 Layer_Color=255*
%FSLAX44Y44*%
%MOMM*%
G71*
G04*
G04 #@! TF.SameCoordinates,00E531A8-DBC4-4BD0-9775-E622AF79C632*
G04*
G04*
G04 #@! TF.FilePolarity,Positive*
G04*
G01*
G75*
%ADD15R,1.0414X0.2794*%
%ADD16R,0.5000X0.3000*%
%ADD17R,1.4700X1.0400*%
%ADD18R,1.4200X1.0000*%
%ADD23C,0.6604*%
%ADD25R,2.2098X1.3970*%
%ADD26C,0.2540*%
%ADD27C,0.3000*%
%ADD28C,1.5300*%
%ADD29C,1.2700*%
G36*
X250000Y0D02*
X0D01*
Y103318D01*
X1063Y104373D01*
X1500Y104373D01*
X7540D01*
Y108310D01*
X8810D01*
Y109580D01*
X16557D01*
Y112040D01*
X8810D01*
Y114580D01*
X16557D01*
Y117040D01*
X8810D01*
Y119580D01*
X16557D01*
Y122040D01*
X8810D01*
Y124580D01*
X16557D01*
Y127040D01*
X8810D01*
Y129580D01*
X16557D01*
Y132040D01*
X8810D01*
Y134580D01*
X16557D01*
Y137040D01*
X8810D01*
Y139580D01*
X16557D01*
Y142040D01*
X8810D01*
Y144580D01*
X16557D01*
Y147040D01*
X8810D01*
Y149580D01*
X16557D01*
Y150461D01*
X31944D01*
X35275Y147129D01*
X35943Y146130D01*
X40943Y141130D01*
X41944Y140462D01*
X43123Y140227D01*
X43124Y140227D01*
X52215D01*
X52836Y138727D01*
X52295Y138186D01*
X51677Y137261D01*
X51460Y136171D01*
X51460Y136171D01*
Y122959D01*
X51460Y122959D01*
X51460Y122959D01*
Y110756D01*
X51460Y110756D01*
X51677Y109665D01*
X52295Y108741D01*
X54613Y106423D01*
X54613Y106423D01*
X55538Y105805D01*
X55579Y105797D01*
Y105389D01*
X65012D01*
X81435Y88966D01*
X81436Y88966D01*
X82360Y88348D01*
X83450Y88131D01*
X83450Y88131D01*
X104366D01*
Y84456D01*
X104867D01*
Y73667D01*
X103012Y71812D01*
X102601Y72049D01*
X100268Y72674D01*
X97852D01*
X95519Y72049D01*
X93427Y70841D01*
X91719Y69133D01*
X90511Y67041D01*
X89886Y64708D01*
Y62292D01*
X90511Y59959D01*
X91719Y57867D01*
X93427Y56159D01*
X95519Y54951D01*
X97852Y54326D01*
X100268D01*
X102601Y54951D01*
X104693Y56159D01*
X106401Y57867D01*
X107609Y59959D01*
X108234Y62292D01*
Y64708D01*
X107609Y67041D01*
X107372Y67452D01*
X108514Y68594D01*
X109130Y68717D01*
X110130Y69385D01*
X110799Y70385D01*
X111033Y71565D01*
Y84456D01*
X121614D01*
Y88131D01*
X124726D01*
Y84456D01*
X141974D01*
Y93475D01*
X153400Y104901D01*
X179929D01*
Y104829D01*
X185844D01*
X186660Y104667D01*
X187178Y104770D01*
X191915D01*
X192643Y104770D01*
X192644Y104770D01*
X193391Y104829D01*
Y104918D01*
X193824Y105005D01*
X194824Y105673D01*
X197760Y108609D01*
X198428Y109609D01*
X198663Y110789D01*
X198663Y110789D01*
Y123391D01*
X198663Y123391D01*
X198663Y123391D01*
Y135992D01*
X198663Y135993D01*
X198428Y137172D01*
X197760Y138173D01*
X197760Y138173D01*
X197418Y138516D01*
X197992Y139901D01*
X210973D01*
X210973Y139901D01*
X212064Y140118D01*
X212988Y140736D01*
X217153Y144901D01*
X232413D01*
Y144020D01*
X240160D01*
X247907D01*
Y146687D01*
X246891D01*
Y155671D01*
X243009D01*
Y201800D01*
X243009Y201800D01*
X242792Y202890D01*
X242598Y203180D01*
X243499Y204739D01*
X244124Y207072D01*
Y209488D01*
X243499Y211821D01*
X242291Y213913D01*
X240583Y215621D01*
X238491Y216829D01*
X236158Y217454D01*
X233742D01*
X231409Y216829D01*
X229317Y215621D01*
X227609Y213913D01*
X226401Y211821D01*
X225776Y209488D01*
Y207072D01*
X226401Y204739D01*
X227609Y202647D01*
X229317Y200939D01*
X231409Y199731D01*
X233742Y199106D01*
X236158D01*
X237311Y198221D01*
Y169289D01*
X235811Y168668D01*
X235141Y169338D01*
X233369Y170072D01*
X231451D01*
X229679Y169338D01*
X228322Y167981D01*
X227588Y166209D01*
Y164291D01*
X228322Y162519D01*
X229679Y161162D01*
X231451Y160428D01*
X233369D01*
X235141Y161162D01*
X235811Y161832D01*
X237311Y161211D01*
Y155671D01*
X233429D01*
Y150599D01*
X215974D01*
X215973Y150599D01*
X214883Y150382D01*
X213959Y149764D01*
X209793Y145599D01*
X194407D01*
Y146480D01*
X186660D01*
Y149020D01*
X194407D01*
Y151687D01*
X193391D01*
Y155671D01*
X189509D01*
Y206257D01*
X189509Y206257D01*
X189292Y207348D01*
X188674Y208272D01*
X188674Y208272D01*
X171302Y225644D01*
X171401Y225815D01*
X171937Y227817D01*
Y229891D01*
X171401Y231893D01*
X170364Y233689D01*
X168898Y235155D01*
X167103Y236191D01*
X165100Y236728D01*
X163027D01*
X161024Y236191D01*
X160853Y236093D01*
X135852Y261094D01*
X134928Y261712D01*
X133837Y261929D01*
X133837Y261929D01*
X86204D01*
X86019Y262621D01*
X84811Y264713D01*
X83103Y266421D01*
X81011Y267629D01*
X78678Y268254D01*
X76262D01*
X73929Y267629D01*
X71837Y266421D01*
X70129Y264713D01*
X68921Y262621D01*
X68296Y260288D01*
Y257872D01*
X68921Y255539D01*
X70129Y253447D01*
X71837Y251739D01*
X73929Y250531D01*
X76262Y249906D01*
X78678D01*
X81011Y250531D01*
X83103Y251739D01*
X84811Y253447D01*
X86019Y255539D01*
X86204Y256231D01*
X132657D01*
X156825Y232064D01*
X156726Y231893D01*
X156189Y229891D01*
Y227817D01*
X156726Y225815D01*
X157763Y224019D01*
X159229Y222553D01*
X161024Y221517D01*
X163027Y220980D01*
X165100D01*
X167103Y221517D01*
X167273Y221615D01*
X183811Y205077D01*
Y155833D01*
X181362D01*
X180780Y155833D01*
X180779Y155833D01*
X179929Y155671D01*
Y155664D01*
X179600Y155598D01*
X178599Y154930D01*
X176249Y152580D01*
X175581Y151580D01*
X175346Y150400D01*
X175346Y150399D01*
Y130101D01*
X175346Y130100D01*
X175581Y128920D01*
X176249Y127920D01*
X178496Y125673D01*
X179496Y125005D01*
X179929Y124918D01*
Y115599D01*
X168151D01*
X167773Y116244D01*
X167604Y117099D01*
X168861Y118355D01*
X169897Y120151D01*
X170434Y122153D01*
Y124227D01*
X169897Y126229D01*
X168861Y128025D01*
X167395Y129491D01*
X165599Y130527D01*
X163597Y131064D01*
X161523D01*
X159521Y130527D01*
X157725Y129491D01*
X156259Y128025D01*
X155223Y126229D01*
X154778Y124570D01*
X154741D01*
X153651Y124353D01*
X152726Y123735D01*
X152726Y123735D01*
X146581Y117590D01*
X146581Y117590D01*
X143360Y114368D01*
X141974Y114943D01*
Y116204D01*
X139969D01*
Y129355D01*
X139752Y130445D01*
X139134Y131369D01*
X139134Y131369D01*
X136971Y133533D01*
X137254Y134216D01*
X137254D01*
Y138200D01*
X138270D01*
Y140970D01*
X133230D01*
X128190D01*
Y138200D01*
X129206D01*
Y134216D01*
X130261Y133153D01*
X130425Y132328D01*
X131043Y131404D01*
X134271Y128175D01*
Y116204D01*
X124726D01*
Y103156D01*
X141476D01*
X142184Y101743D01*
X137945Y97504D01*
X124726D01*
Y93829D01*
X121614D01*
Y97504D01*
X104366D01*
Y93829D01*
X84630D01*
X69497Y108961D01*
X70119Y110461D01*
X104366D01*
Y103156D01*
X121614D01*
Y116204D01*
X115839D01*
Y129630D01*
X117653Y131444D01*
X117653Y131444D01*
X118270Y132368D01*
X118487Y133458D01*
X119648Y134216D01*
X122254D01*
Y143200D01*
X123270D01*
Y145970D01*
X118230D01*
Y147240D01*
X116960D01*
Y151280D01*
X113190D01*
X113014Y152707D01*
Y160394D01*
X95266D01*
Y146946D01*
X103959D01*
Y139738D01*
X96610Y132389D01*
X87540D01*
X79604Y140324D01*
X78680Y140942D01*
X77590Y141159D01*
X77590Y141159D01*
X69041D01*
Y145461D01*
X79730D01*
X79730Y145461D01*
X80820Y145678D01*
X81744Y146296D01*
X90914Y155466D01*
X91532Y156390D01*
X91749Y157480D01*
X91749Y157480D01*
Y200750D01*
X94580Y203581D01*
X94751Y203483D01*
X96753Y202946D01*
X98827D01*
X100829Y203483D01*
X102625Y204519D01*
X104091Y205985D01*
X105127Y207781D01*
X105664Y209783D01*
Y211857D01*
X105127Y213859D01*
X104091Y215655D01*
X102625Y217121D01*
X100829Y218157D01*
X98827Y218694D01*
X96753D01*
X94751Y218157D01*
X92955Y217121D01*
X91489Y215655D01*
X90453Y213859D01*
X89916Y211857D01*
Y209783D01*
X90453Y207781D01*
X90551Y207610D01*
X86886Y203944D01*
X86268Y203020D01*
X86051Y201930D01*
X86051Y201930D01*
Y192591D01*
X84607Y192130D01*
X84551Y192129D01*
X82828Y193852D01*
X83537Y195081D01*
X84074Y197083D01*
Y199157D01*
X83537Y201159D01*
X82501Y202955D01*
X81035Y204421D01*
X79684Y205201D01*
Y214615D01*
X81011Y214971D01*
X83103Y216179D01*
X84811Y217887D01*
X86019Y219979D01*
X86644Y222312D01*
Y224728D01*
X86019Y227061D01*
X84811Y229153D01*
X83103Y230861D01*
X81011Y232069D01*
X78678Y232694D01*
X76262D01*
X73929Y232069D01*
X71837Y230861D01*
X70129Y229153D01*
X68921Y227061D01*
X68296Y224728D01*
Y222312D01*
X68921Y219979D01*
X70129Y217887D01*
X71837Y216179D01*
X73929Y214971D01*
X73986Y214956D01*
Y205679D01*
X73161Y205457D01*
X71365Y204421D01*
X69899Y202955D01*
X68863Y201159D01*
X68326Y199157D01*
Y197083D01*
X68863Y195081D01*
X69899Y193285D01*
X71365Y191819D01*
X73161Y190783D01*
X75163Y190246D01*
X77237D01*
X78136Y190487D01*
X79701Y188922D01*
Y165010D01*
X70850Y156159D01*
X69041D01*
Y156231D01*
X55579D01*
Y146393D01*
X44401D01*
X40304Y150490D01*
X39304Y151158D01*
X35138Y155324D01*
X34214Y155942D01*
X33124Y156159D01*
X33123Y156159D01*
X15541D01*
Y156231D01*
X2079D01*
Y153352D01*
X1404Y153071D01*
X0Y154110D01*
Y282000D01*
X250000D01*
Y0D01*
D02*
G37*
%LPC*%
G36*
X114030Y180210D02*
X105410D01*
Y173740D01*
X114030D01*
Y180210D01*
D02*
G37*
G36*
X102870D02*
X94250D01*
Y173740D01*
X102870D01*
Y180210D01*
D02*
G37*
G36*
X48133Y184319D02*
X22987D01*
Y167301D01*
X48133D01*
Y184319D01*
D02*
G37*
G36*
X225983Y183759D02*
X200837D01*
Y166741D01*
X225983D01*
Y183759D01*
D02*
G37*
G36*
X114030Y171200D02*
X105410D01*
Y164730D01*
X114030D01*
Y171200D01*
D02*
G37*
G36*
X102870D02*
X94250D01*
Y164730D01*
X102870D01*
Y171200D01*
D02*
G37*
G36*
X55519Y170632D02*
X53601D01*
X51828Y169898D01*
X50472Y168541D01*
X49738Y166769D01*
Y164851D01*
X50472Y163079D01*
X51828Y161722D01*
X53601Y160988D01*
X55519D01*
X57291Y161722D01*
X58648Y163079D01*
X59382Y164851D01*
Y166769D01*
X58648Y168541D01*
X57291Y169898D01*
X55519Y170632D01*
D02*
G37*
G36*
X138270Y151280D02*
X134500D01*
Y148510D01*
X138270D01*
Y151280D01*
D02*
G37*
G36*
X119500D02*
Y148510D01*
X123270D01*
Y151280D01*
X119500D01*
D02*
G37*
G36*
X131960D02*
X128190D01*
Y148510D01*
X131960D01*
Y151280D01*
D02*
G37*
G36*
X138270Y145970D02*
X133230D01*
X128190D01*
Y143510D01*
X133230D01*
X138270D01*
Y145970D01*
D02*
G37*
G36*
X247907Y141480D02*
X240160D01*
X232413D01*
Y139020D01*
X240160D01*
X247907D01*
Y141480D01*
D02*
G37*
G36*
Y136480D02*
X240160D01*
X232413D01*
Y134020D01*
X240160D01*
X247907D01*
Y136480D01*
D02*
G37*
G36*
Y131480D02*
X240160D01*
X232413D01*
Y129020D01*
X240160D01*
X247907D01*
Y131480D01*
D02*
G37*
G36*
Y126480D02*
X240160D01*
X232413D01*
Y124020D01*
X240160D01*
X247907D01*
Y126480D01*
D02*
G37*
G36*
Y121480D02*
X240160D01*
X232413D01*
Y119020D01*
X240160D01*
X247907D01*
Y121480D01*
D02*
G37*
G36*
Y116480D02*
X240160D01*
X232413D01*
Y114020D01*
X240160D01*
X247907D01*
Y116480D01*
D02*
G37*
G36*
Y111480D02*
X240160D01*
X232413D01*
Y109020D01*
X240160D01*
X247907D01*
Y111480D01*
D02*
G37*
G36*
X16557Y107040D02*
X10080D01*
Y104373D01*
X16557D01*
Y107040D01*
D02*
G37*
G36*
X247907Y106480D02*
X241430D01*
Y103813D01*
X247907D01*
Y106480D01*
D02*
G37*
G36*
X238890D02*
X232413D01*
Y103813D01*
X238890D01*
Y106480D01*
D02*
G37*
G36*
X55519Y100632D02*
X53601D01*
X51828Y99898D01*
X50472Y98541D01*
X49738Y96769D01*
Y94851D01*
X50472Y93079D01*
X51828Y91722D01*
X53601Y90988D01*
X55519D01*
X57291Y91722D01*
X58648Y93079D01*
X59382Y94851D01*
Y96769D01*
X58648Y98541D01*
X57291Y99898D01*
X55519Y100632D01*
D02*
G37*
G36*
X233369Y100072D02*
X231451D01*
X229679Y99338D01*
X228322Y97981D01*
X227588Y96209D01*
Y94291D01*
X228322Y92519D01*
X229679Y91162D01*
X231451Y90428D01*
X233369D01*
X235141Y91162D01*
X236498Y92519D01*
X237232Y94291D01*
Y96209D01*
X236498Y97981D01*
X235141Y99338D01*
X233369Y100072D01*
D02*
G37*
G36*
X48133Y94319D02*
X22987D01*
Y77301D01*
X48133D01*
Y94319D01*
D02*
G37*
G36*
X225983Y93759D02*
X200837D01*
Y76741D01*
X225983D01*
Y93759D01*
D02*
G37*
G36*
X130748Y72674D02*
X128332D01*
X125999Y72049D01*
X123907Y70841D01*
X122199Y69133D01*
X120991Y67041D01*
X120366Y64708D01*
Y62292D01*
X120991Y59959D01*
X122199Y57867D01*
X123907Y56159D01*
X125999Y54951D01*
X128332Y54326D01*
X130748D01*
X133081Y54951D01*
X135173Y56159D01*
X136881Y57867D01*
X138089Y59959D01*
X138714Y62292D01*
Y64708D01*
X138089Y67041D01*
X136881Y69133D01*
X135173Y70841D01*
X133081Y72049D01*
X130748Y72674D01*
D02*
G37*
G36*
X69922Y52100D02*
X69850D01*
Y43180D01*
X78770D01*
Y43252D01*
X78076Y45843D01*
X76734Y48167D01*
X74837Y50064D01*
X72513Y51406D01*
X69922Y52100D01*
D02*
G37*
G36*
X67310D02*
X67238D01*
X64647Y51406D01*
X62323Y50064D01*
X60426Y48167D01*
X59084Y45843D01*
X58390Y43252D01*
Y43180D01*
X67310D01*
Y52100D01*
D02*
G37*
G36*
X161228Y54894D02*
X158812D01*
X156479Y54269D01*
X154387Y53061D01*
X152679Y51353D01*
X151471Y49261D01*
X150846Y46928D01*
Y44512D01*
X151471Y42179D01*
X152679Y40087D01*
X154387Y38379D01*
X156479Y37171D01*
X158812Y36546D01*
X161228D01*
X163561Y37171D01*
X165653Y38379D01*
X167361Y40087D01*
X168569Y42179D01*
X169194Y44512D01*
Y46928D01*
X168569Y49261D01*
X167361Y51353D01*
X165653Y53061D01*
X163561Y54269D01*
X161228Y54894D01*
D02*
G37*
G36*
X78770Y40640D02*
X69850D01*
Y31720D01*
X69922D01*
X72513Y32414D01*
X74837Y33756D01*
X76734Y35653D01*
X78076Y37977D01*
X78770Y40568D01*
Y40640D01*
D02*
G37*
G36*
X67310D02*
X58390D01*
Y40568D01*
X59084Y37977D01*
X60426Y35653D01*
X62323Y33756D01*
X64647Y32414D01*
X67238Y31720D01*
X67310D01*
Y40640D01*
D02*
G37*
%LPD*%
D15*
X8810Y108310D02*
D03*
X62310D02*
D03*
X8810Y113310D02*
D03*
X62310D02*
D03*
X8810Y118310D02*
D03*
X62310D02*
D03*
X8810Y123310D02*
D03*
X62310D02*
D03*
X8810Y128310D02*
D03*
X62310D02*
D03*
X8810Y133310D02*
D03*
X62310D02*
D03*
X8810Y138310D02*
D03*
X62310D02*
D03*
X8810Y143310D02*
D03*
X62310D02*
D03*
X8810Y148310D02*
D03*
X62310D02*
D03*
X8810Y153310D02*
D03*
X62310D02*
D03*
X240160Y152750D02*
D03*
X186660D02*
D03*
X240160Y147750D02*
D03*
X186660D02*
D03*
X240160Y142750D02*
D03*
X186660D02*
D03*
X240160Y137750D02*
D03*
X186660D02*
D03*
X240160Y132750D02*
D03*
X186660D02*
D03*
X240160Y127750D02*
D03*
X186660D02*
D03*
X240160Y122750D02*
D03*
X186660D02*
D03*
X240160Y117750D02*
D03*
X186660D02*
D03*
X240160Y112750D02*
D03*
X186660D02*
D03*
X240160Y107750D02*
D03*
X186660D02*
D03*
D16*
X133230Y137240D02*
D03*
Y142240D02*
D03*
Y147240D02*
D03*
X118230D02*
D03*
Y142240D02*
D03*
Y137240D02*
D03*
D17*
X104140Y172470D02*
D03*
Y153670D02*
D03*
D18*
X112990Y90980D02*
D03*
Y109680D02*
D03*
X133350Y90980D02*
D03*
Y109680D02*
D03*
D23*
X54560Y95810D02*
D03*
Y165810D02*
D03*
X232410Y165250D02*
D03*
Y95250D02*
D03*
D25*
X35560Y85810D02*
D03*
Y175810D02*
D03*
X213410Y175250D02*
D03*
Y85250D02*
D03*
D26*
X234315Y207645D02*
X240160Y201800D01*
X76200Y196452D02*
Y198120D01*
Y196452D02*
X82550Y190102D01*
Y163830D02*
Y190102D01*
X72030Y153310D02*
X82550Y163830D01*
X62310Y153310D02*
X72030D01*
X62310Y148310D02*
X79730D01*
X88900Y157480D01*
Y201930D01*
X86360Y129540D02*
X97790D01*
X77590Y138310D02*
X86360Y129540D01*
X62310Y138310D02*
X77590D01*
X106807Y138558D02*
Y153153D01*
X97790Y129540D02*
X106807Y138558D01*
X107078Y146979D02*
X111788Y142268D01*
X118202D02*
X118230Y142240D01*
X111788Y142268D02*
X118202D01*
X111450Y90980D02*
X111680D01*
X83450D02*
X111450D01*
X88900Y201930D02*
X97790Y210820D01*
X164063Y228854D02*
X186660Y206257D01*
X133837Y259080D02*
X164063Y228854D01*
X77470Y259080D02*
X133837D01*
X186660Y152750D02*
Y206257D01*
X76835Y198755D02*
Y222885D01*
X76200Y198120D02*
X76835Y198755D01*
Y222885D02*
X77470Y223520D01*
X115868Y137240D02*
X116040D01*
X115638Y133458D02*
Y137010D01*
X112990Y130810D02*
X115638Y133458D01*
Y137010D02*
X115868Y137240D01*
X112990Y111030D02*
Y130810D01*
X109540Y111030D02*
X112990D01*
X96110Y124460D02*
X107260Y113310D01*
X76200Y124460D02*
X96110D01*
X107260Y113310D02*
X109540Y111030D01*
X54309Y122959D02*
Y136171D01*
Y110756D02*
Y122959D01*
X54535Y123185D01*
X54309Y110756D02*
X56628Y108437D01*
X54535Y123185D02*
X62185D01*
X56628Y108437D02*
X62183D01*
X54309Y136171D02*
X56321Y138183D01*
X62183D01*
X215973Y147750D02*
X240160D01*
X210973Y142750D02*
X215973Y147750D01*
X186660Y142750D02*
X210973D01*
X240160Y152750D02*
Y201800D01*
X33124Y153310D02*
X38124Y148310D01*
X8810Y153310D02*
X33124D01*
X148596Y115576D02*
X151422Y112750D01*
X186660D01*
X148596Y115576D02*
X154741Y121721D01*
X142772Y109752D02*
X148596Y115576D01*
X135450Y90980D02*
X152220Y107750D01*
X186660D01*
X137192Y109752D02*
X142772D01*
X137120Y109680D02*
X137192Y109752D01*
X112990Y90980D02*
X133350D01*
X135450D01*
X161091Y121721D02*
X162560Y123190D01*
X154741Y121721D02*
X161091D01*
X240160Y147750D02*
Y152750D01*
X62310Y113310D02*
X107260D01*
X66120Y108310D02*
X83450Y90980D01*
X62183Y108437D02*
X62310Y108310D01*
X66120D01*
X133350Y109680D02*
X137120D01*
X62183Y138183D02*
X62310Y138310D01*
X132800Y137240D02*
X132827D01*
X133057Y133418D02*
Y137010D01*
Y133418D02*
X137120Y129355D01*
X132827Y137240D02*
X133057Y137010D01*
X137120Y109680D02*
Y129355D01*
D27*
X107125Y71565D02*
X107950D01*
X99060Y63500D02*
X107125Y71565D01*
X99060Y63500D02*
X99060D01*
X107950Y71565D02*
Y87480D01*
X111680Y90980D02*
X112990D01*
X107950Y87480D02*
X111450Y90980D01*
X180779Y152750D02*
X186660D01*
X178429Y150400D02*
X180779Y152750D01*
X178429Y130100D02*
Y150400D01*
Y130100D02*
X180676Y127853D01*
X186557D01*
X186660Y127750D01*
X194939Y122750D02*
X195580Y123391D01*
X186660Y122750D02*
X194939D01*
X195580Y123391D02*
Y135993D01*
X193823Y137750D02*
X195580Y135993D01*
Y110789D02*
Y123391D01*
X192644Y107853D02*
X195580Y110789D01*
X186660Y137750D02*
X193823D01*
X186763Y107853D02*
X192644D01*
X186660Y107750D02*
X186763Y107853D01*
X38124Y148310D02*
X43123Y143310D01*
X62310D01*
D28*
X68580Y41910D02*
D03*
X99060Y63500D02*
D03*
X160020Y45720D02*
D03*
X234950Y208280D02*
D03*
X77470Y259080D02*
D03*
X129540Y63500D02*
D03*
X77470Y223520D02*
D03*
D29*
X97790Y210820D02*
D03*
X164063Y228854D02*
D03*
X76200Y198120D02*
D03*
Y124460D02*
D03*
X162560Y123190D02*
D03*
M02*
