G04*
G04 #@! TF.GenerationSoftware,Altium Limited,Altium Designer,26.5.0 (11)*
G04*
G04 Layer_Color=32896*
G04 Board_Origin=1200000|0*
%FSLAX44Y44*%
%MOMM*%
G71*
G04*
G04 #@! TF.SameCoordinates,4694B4A4-1AAE-40D1-B312-15FC3A239799*
G04*
G04*
G04 #@! TF.FilePolarity,Positive*
G04*
G01*
G75*
%ADD10C,0.5080*%
%ADD12C,0.2000*%
%ADD14C,0.2540*%
%ADD32C,0.1000*%
D10*
X12540Y72096D02*
G03*
X12540Y72096I-3810J0D01*
G01*
X190470Y71576D02*
G03*
X190470Y71576I-3810J0D01*
G01*
D12*
X119730Y190990D02*
X131730D01*
X142730Y167990D02*
Y179990D01*
X108730Y167990D02*
Y179990D01*
X119730Y156990D02*
X131730D01*
X120160Y203550D02*
X132160D01*
X109160Y214550D02*
Y226550D01*
X143160Y214550D02*
Y226550D01*
X120160Y237550D02*
X132160D01*
D14*
X121412Y271013D02*
Y255778D01*
X113794D01*
X111255Y258317D01*
Y260856D01*
X113794Y263396D01*
X121412D01*
X113794D01*
X111255Y265935D01*
Y268474D01*
X113794Y271013D01*
X121412D01*
X106177Y255778D02*
X101099D01*
X103638D01*
Y271013D01*
X106177Y268474D01*
D32*
X148730Y184990D02*
G03*
X147730Y184990I-500J0D01*
G01*
D02*
G03*
X148730Y184990I500J0D01*
G01*
X148160Y231550D02*
G03*
X149160Y231550I500J0D01*
G01*
D02*
G03*
X148160Y231550I-500J0D01*
G01*
M02*
