G04*
G04 #@! TF.GenerationSoftware,Altium Limited,Altium Designer,26.5.0 (11)*
G04*
G04 Layer_Color=65535*
G04 Board_Origin=1200000|0*
%FSLAX44Y44*%
%MOMM*%
G71*
G04*
G04 #@! TF.SameCoordinates,4694B4A4-1AAE-40D1-B312-15FC3A239799*
G04*
G04*
G04 #@! TF.FilePolarity,Positive*
G04*
G01*
G75*
%ADD10C,0.5080*%
%ADD11C,0.1270*%
%ADD12C,0.2000*%
%ADD13C,0.1524*%
%ADD14C,0.2540*%
D10*
X12540Y72096D02*
G03*
X12540Y72096I-3810J0D01*
G01*
X190470Y71576D02*
G03*
X190470Y71576I-3810J0D01*
G01*
D11*
X96520Y207010D02*
G03*
X96520Y207010I-12700J0D01*
G01*
X189230D02*
G03*
X189230Y207010I-12700J0D01*
G01*
X242570D02*
G03*
X242570Y207010I-12700J0D01*
G01*
X159597Y40640D02*
G03*
X159597Y40640I-12700J0D01*
G01*
X119380D02*
G03*
X119380Y40640I-12700J0D01*
G01*
X199390D02*
G03*
X199390Y40640I-12700J0D01*
G01*
X80010D02*
G03*
X80010Y40640I-12700J0D01*
G01*
X160440Y71880D02*
Y76960D01*
X174840Y71880D02*
Y76960D01*
X88480Y71120D02*
Y76200D01*
X74080Y71120D02*
Y76200D01*
X96940Y147320D02*
Y152400D01*
X111340Y147320D02*
Y152400D01*
X105990Y99130D02*
Y101530D01*
X119990Y99130D02*
Y101530D01*
X126350Y99130D02*
Y101530D01*
X140350Y99130D02*
Y101530D01*
D12*
X127480Y132740D02*
X134730D01*
X116730D02*
X118730D01*
X116730Y151740D02*
X118730D01*
X132730D02*
X134730D01*
X141988Y160209D02*
Y153544D01*
X143321Y152211D01*
X145987D01*
X147320Y153544D01*
Y160209D01*
X149986Y152211D02*
X152652D01*
X151319D01*
Y160209D01*
X149986Y158876D01*
X38100Y107950D02*
X28103D01*
Y112948D01*
X29769Y114614D01*
X33102D01*
X34768Y112948D01*
Y107950D01*
Y111282D02*
X38100Y114614D01*
X28103Y124611D02*
Y117947D01*
X38100D01*
Y124611D01*
X33102Y117947D02*
Y121279D01*
X28103Y134608D02*
Y127944D01*
X33102D01*
Y131276D01*
Y127944D01*
X38100D01*
X28103Y137940D02*
X38100D01*
Y142939D01*
X36434Y144605D01*
X29769D01*
X28103Y142939D01*
Y137940D01*
Y154602D02*
Y147937D01*
X38100D01*
Y154602D01*
X33102Y147937D02*
Y151269D01*
X29769Y164598D02*
X28103Y162932D01*
Y159600D01*
X29769Y157934D01*
X31435D01*
X33102Y159600D01*
Y162932D01*
X34768Y164598D01*
X36434D01*
X38100Y162932D01*
Y159600D01*
X36434Y157934D01*
X219710Y105410D02*
X209713D01*
Y110408D01*
X211379Y112074D01*
X214712D01*
X216378Y110408D01*
Y105410D01*
Y108742D02*
X219710Y112074D01*
X209713Y122071D02*
Y115407D01*
X219710D01*
Y122071D01*
X214712Y115407D02*
Y118739D01*
X209713Y132068D02*
Y125404D01*
X214712D01*
Y128736D01*
Y125404D01*
X219710D01*
X209713Y135400D02*
X219710D01*
Y140399D01*
X218044Y142065D01*
X211379D01*
X209713Y140399D01*
Y135400D01*
Y152062D02*
Y145397D01*
X219710D01*
Y152062D01*
X214712Y145397D02*
Y148729D01*
X211379Y162058D02*
X209713Y160392D01*
Y157060D01*
X211379Y155394D01*
X213046D01*
X214712Y157060D01*
Y160392D01*
X216378Y162058D01*
X218044D01*
X219710Y160392D01*
Y157060D01*
X218044Y155394D01*
X101537Y71246D02*
X100204Y72579D01*
X97538D01*
X96206Y71246D01*
Y65914D01*
X97538Y64581D01*
X100204D01*
X101537Y65914D01*
X104203Y71246D02*
X105536Y72579D01*
X108202D01*
X109535Y71246D01*
Y69913D01*
X108202Y68580D01*
X106869D01*
X108202D01*
X109535Y67247D01*
Y65914D01*
X108202Y64581D01*
X105536D01*
X104203Y65914D01*
X145987Y74036D02*
X144654Y75369D01*
X141988D01*
X140655Y74036D01*
Y68704D01*
X141988Y67371D01*
X144654D01*
X145987Y68704D01*
X153984Y67371D02*
X148653D01*
X153984Y72703D01*
Y74036D01*
X152652Y75369D01*
X149986D01*
X148653Y74036D01*
X104140Y179956D02*
X102807Y181289D01*
X100141D01*
X98808Y179956D01*
Y174624D01*
X100141Y173291D01*
X102807D01*
X104140Y174624D01*
X106806Y173291D02*
X109472D01*
X108139D01*
Y181289D01*
X106806Y179956D01*
X219207Y231329D02*
Y225997D01*
X221873Y223331D01*
X224538Y225997D01*
Y231329D01*
X227204D02*
Y223331D01*
X231203D01*
X232536Y224664D01*
Y225997D01*
X231203Y227330D01*
X227204D01*
X231203D01*
X232536Y228663D01*
Y229996D01*
X231203Y231329D01*
X227204D01*
X235202Y223331D02*
Y231329D01*
X239200D01*
X240533Y229996D01*
Y227330D01*
X239200Y225997D01*
X235202D01*
X237867D02*
X240533Y223331D01*
X69158Y231329D02*
Y225997D01*
X71824Y223331D01*
X74490Y225997D01*
Y231329D01*
X77155Y223331D02*
Y228663D01*
X79821Y231329D01*
X82487Y228663D01*
Y223331D01*
Y227330D01*
X77155D01*
X85153Y223331D02*
Y231329D01*
X90485Y223331D01*
Y231329D01*
X98482Y223331D02*
X93150D01*
X98482Y228663D01*
Y229996D01*
X97149Y231329D01*
X94483D01*
X93150Y229996D01*
X163201Y231329D02*
Y225997D01*
X165867Y223331D01*
X168533Y225997D01*
Y231329D01*
X171198Y223331D02*
Y228663D01*
X173864Y231329D01*
X176530Y228663D01*
Y223331D01*
Y227330D01*
X171198D01*
X179196Y223331D02*
Y231329D01*
X184527Y223331D01*
Y231329D01*
X187193Y223331D02*
X189859D01*
X188526D01*
Y231329D01*
X187193Y229996D01*
X61978Y17906D02*
X60645Y19239D01*
X57980D01*
X56647Y17906D01*
Y16573D01*
X57980Y15240D01*
X60645D01*
X61978Y13907D01*
Y12574D01*
X60645Y11241D01*
X57980D01*
X56647Y12574D01*
X64644Y19239D02*
Y11241D01*
X68643D01*
X69976Y12574D01*
Y17906D01*
X68643Y19239D01*
X64644D01*
X72642Y11241D02*
Y16573D01*
X75307Y19239D01*
X77973Y16573D01*
Y11241D01*
Y15240D01*
X72642D01*
X182628Y16636D02*
X181296Y17969D01*
X178630D01*
X177297Y16636D01*
Y15303D01*
X178630Y13970D01*
X181296D01*
X182628Y12637D01*
Y11304D01*
X181296Y9971D01*
X178630D01*
X177297Y11304D01*
X190626Y16636D02*
X189293Y17969D01*
X186627D01*
X185294Y16636D01*
Y11304D01*
X186627Y9971D01*
X189293D01*
X190626Y11304D01*
X193292Y17969D02*
Y9971D01*
X198623D01*
X140718Y16636D02*
X139385Y17969D01*
X136720D01*
X135387Y16636D01*
Y11304D01*
X136720Y9971D01*
X139385D01*
X140718Y11304D01*
Y13970D01*
X138053D01*
X143384Y9971D02*
Y17969D01*
X148716Y9971D01*
Y17969D01*
X151382D02*
Y9971D01*
X155380D01*
X156713Y11304D01*
Y16636D01*
X155380Y17969D01*
X151382D01*
X96017Y17906D02*
X97350Y19239D01*
X100015D01*
X101348Y17906D01*
Y16573D01*
X100015Y15240D01*
X98683D01*
X100015D01*
X101348Y13907D01*
Y12574D01*
X100015Y11241D01*
X97350D01*
X96017Y12574D01*
X104014Y19239D02*
Y13907D01*
X106680Y11241D01*
X109346Y13907D01*
Y19239D01*
X112012Y17906D02*
X113344Y19239D01*
X116010D01*
X117343Y17906D01*
Y16573D01*
X116010Y15240D01*
X114677D01*
X116010D01*
X117343Y13907D01*
Y12574D01*
X116010Y11241D01*
X113344D01*
X112012Y12574D01*
X153859Y89855D02*
X145861D01*
Y93854D01*
X147194Y95187D01*
X149860D01*
X151193Y93854D01*
Y89855D01*
Y92521D02*
X153859Y95187D01*
Y103184D02*
Y97853D01*
X148527Y103184D01*
X147194D01*
X145861Y101852D01*
Y99186D01*
X147194Y97853D01*
X101789Y89918D02*
X93791D01*
Y93917D01*
X95124Y95250D01*
X97790D01*
X99123Y93917D01*
Y89918D01*
Y92584D02*
X101789Y95250D01*
Y97916D02*
Y100582D01*
Y99249D01*
X93791D01*
X95124Y97916D01*
X170117Y179259D02*
X167451D01*
X168784D01*
Y172594D01*
X167451Y171261D01*
X166118D01*
X164785Y172594D01*
X178114Y171261D02*
X172783D01*
X178114Y176593D01*
Y177926D01*
X176782Y179259D01*
X174116D01*
X172783Y177926D01*
D13*
X49839Y183094D02*
X66214D01*
Y157994D02*
Y183094D01*
Y78446D02*
Y103546D01*
X49839Y78446D02*
X66214D01*
X4746Y183094D02*
X21121D01*
X4746Y157994D02*
Y183094D01*
Y78446D02*
X21121D01*
X4746D02*
Y103546D01*
X182676Y182574D02*
X199051D01*
X227769Y77926D02*
X244144D01*
Y157474D02*
Y182574D01*
X182676Y77926D02*
Y103026D01*
Y77926D02*
X199051D01*
X182676Y157474D02*
Y182574D01*
X227769D02*
X244144D01*
Y77926D02*
Y103026D01*
D14*
X59690Y195769D02*
X57024D01*
X58357D01*
Y189104D01*
X57024Y187771D01*
X55691D01*
X54358Y189104D01*
X62356Y187771D02*
X65022D01*
X63689D01*
Y195769D01*
X62356Y194436D01*
M02*
